<svg width="229" height="559" viewBox="0 0 229 559" fill="none" xmlns="http://www.w3.org/2000/svg">
<path d="M233.76 411.259C172.87 411.259 123.52 352.22 123.52 279.402C123.52 206.584 172.87 147.533 233.76 147.533" stroke="#E8505B" stroke-opacity="0.7" stroke-miterlimit="10"/>
<path d="M233.76 423.471C167.24 423.471 113.31 358.966 113.31 279.402C113.31 199.838 167.24 135.321 233.76 135.321" stroke="#E8505B" stroke-opacity="0.7" stroke-miterlimit="10"/>
<path d="M233.76 435.683C161.6 435.683 103.1 365.712 103.1 279.402C103.1 193.092 161.6 123.121 233.76 123.121" stroke="#E8505B" stroke-opacity="0.7" stroke-miterlimit="10"/>
<path d="M233.76 447.895C155.96 447.895 92.8898 372.458 92.8898 279.402C92.8898 186.346 155.96 110.897 233.76 110.897" stroke="#E8505B" stroke-opacity="0.7" stroke-miterlimit="10"/>
<path d="M233.76 460.107C150.32 460.107 82.6798 379.203 82.6798 279.402C82.6798 179.6 150.32 98.6847 233.76 98.6847" stroke="#E8505B" stroke-opacity="0.7" stroke-miterlimit="10"/>
<path d="M233.76 472.319C144.68 472.319 72.4697 385.949 72.4697 279.402C72.4697 172.854 144.68 86.4846 233.76 86.4846" stroke="#E8505B" stroke-opacity="0.7" stroke-miterlimit="10"/>
<path d="M233.76 484.519C139.04 484.519 62.2598 392.683 62.2598 279.39C62.2598 166.096 139.04 74.2605 233.76 74.2605" stroke="#E8505B" stroke-opacity="0.7" stroke-miterlimit="10"/>
<path d="M233.76 496.731C133.4 496.731 52.0498 399.429 52.0498 279.39C52.0498 159.35 133.4 62.0604 233.76 62.0604" stroke="#E8505B" stroke-opacity="0.7" stroke-miterlimit="10"/>
<path d="M233.76 508.943C127.77 508.943 41.8397 406.175 41.8397 279.39C41.8397 152.604 127.77 49.8484 233.76 49.8484" stroke="#E8505B" stroke-opacity="0.7" stroke-miterlimit="10"/>
<path d="M233.76 521.155C122.13 521.155 31.6298 412.909 31.6298 279.39C31.6298 145.871 122.13 37.6365 233.76 37.6365" stroke="#E8505B" stroke-opacity="0.7" stroke-miterlimit="10"/>
<path d="M233.76 533.666C116.35 533.666 21.1698 419.823 21.1698 279.39C21.1698 138.957 116.35 25.1254 233.76 25.1254" stroke="#E8505B" stroke-opacity="0.7" stroke-miterlimit="10"/>
<path d="M233.76 545.579C110.85 545.579 11.2097 426.401 11.2097 279.39C11.2097 132.379 110.85 13.2122 233.76 13.2122" stroke="#E8505B" stroke-opacity="0.7" stroke-miterlimit="10"/>
<path d="M233.76 557.792C105.21 557.792 0.999743 433.147 0.999743 279.39C0.999743 125.632 105.21 0.999977 233.76 0.999977" stroke="#E8505B" stroke-opacity="0.7" stroke-miterlimit="10"/>
</svg>
