<svg width="60" height="338" viewBox="0 0 60 338" fill="none" xmlns="http://www.w3.org/2000/svg">
<path d="M29.5508 337.052L59.1016 308.879H50.9391L29.5508 329.276L8.14065 308.879H-3.8147e-06L29.5508 337.052Z" fill="#263238"/>
<path d="M29.5508 302.732L59.1016 274.56H50.9391L29.5508 294.956L8.14065 274.56H-3.8147e-06L29.5508 302.732Z" fill="#263238"/>
<path d="M29.5508 268.412L59.1016 240.24H50.9391L29.5508 260.636L8.14065 240.24H-3.8147e-06L29.5508 268.412Z" fill="#263238"/>
<path d="M29.5508 234.093L59.1016 205.92H50.9391L29.5508 226.316L8.14065 205.92H-3.8147e-06L29.5508 234.093Z" fill="#263238"/>
<path d="M29.5508 199.773L59.1016 171.6H50.9391L29.5508 191.996L8.14065 171.6H-3.8147e-06L29.5508 199.773Z" fill="#263238"/>
<path d="M29.5508 165.453L59.1016 137.28H50.9391L29.5508 157.676L8.14065 137.28H-3.8147e-06L29.5508 165.453Z" fill="#263238"/>
<path d="M29.5508 131.133L59.1016 102.96H50.9391L29.5508 123.357L8.14065 102.96H-3.8147e-06L29.5508 131.133Z" fill="#263238"/>
<path d="M29.5508 96.8125L59.1016 68.6396H50.9391L29.5508 89.0362L8.14065 68.6396H-3.8147e-06L29.5508 96.8125Z" fill="#263238"/>
<path d="M29.5508 62.4928L59.1016 34.3201H50.9391L29.5508 54.7165L8.14065 34.3201H-3.8147e-06L29.5508 62.4928Z" fill="#263238"/>
<path d="M29.5508 28.1945L59.1016 0L50.9391 0L29.5508 20.3965L8.14065 0L-3.8147e-06 0L29.5508 28.1945Z" fill="#263238"/>
</svg>
