<svg width="100" height="100" viewBox="0 0 100 100" fill="none" xmlns="http://www.w3.org/2000/svg">
<path d="M92.5878 15.6607H84.7317V7.56934C84.7317 3.3957 81.336 0 77.1622 0C72.9884 0 69.5927 3.3957 69.5927 7.56934V15.6607H20.4243V12.5578C20.4243 10.4076 18.6749 8.6582 16.5247 8.6582H10.9056C6.23662 8.6582 2.43799 12.4566 2.43799 17.1258V82.8641V82.865C2.43799 82.865 2.43799 82.8656 2.43799 82.866C2.43799 87.5398 6.24053 91.3422 10.9142 91.3422H71.5474L73.5175 97.3588C74.0433 98.9631 75.4737 100 77.1622 100C78.8507 100 80.2813 98.9631 80.8065 97.3586L82.7767 91.3418H92.5876C95.3304 91.3418 97.5618 89.1104 97.5618 86.3676V20.635C97.562 17.8922 95.3306 15.6607 92.5878 15.6607ZM72.5224 82.2141V21.9645H75.6974V82.2139H72.5224V82.2141ZM72.5224 19.0348V15.2164H81.802V19.0348H72.5224ZM77.1622 2.92969C79.7206 2.92969 81.802 5.01113 81.802 7.56934V12.2867H72.5224V7.56934C72.5224 5.01113 74.604 2.92969 77.1622 2.92969ZM5.36787 17.1256C5.36787 14.0721 7.85225 11.5877 10.9058 11.5877H16.5249C17.0597 11.5877 17.4948 12.0229 17.4948 12.5576V73.4262C17.4948 73.9609 17.0597 74.3961 16.5249 74.3961H10.9058C8.79033 74.3961 6.85361 75.176 5.36787 76.4631V17.1256ZM10.9146 88.4121C7.85615 88.4121 5.36807 85.924 5.36807 82.8656V82.8639C5.36807 79.8103 7.85244 77.326 10.906 77.326H16.5251C18.6753 77.326 20.4247 75.5766 20.4247 73.4264V18.5904H69.5931V83.6787C69.5931 84.8018 69.7702 85.9127 70.1198 86.9805L70.5886 88.4121H10.9146ZM78.0224 96.4471C77.8382 97.0096 77.3595 97.0703 77.1624 97.0703C76.9653 97.0703 76.4866 97.0096 76.3024 96.4469C76.131 95.9299 72.797 85.8293 72.6636 85.1436H81.6612C81.5288 85.8236 78.203 95.9018 78.0224 96.4471ZM94.6323 86.3678C94.6323 87.4951 93.7151 88.4123 92.5878 88.4123H83.7362L84.205 86.9807C84.5546 85.9129 84.7317 84.8021 84.7317 83.6789V34.9121C84.7317 34.1031 84.0761 33.4473 83.2669 33.4473C82.4577 33.4473 81.802 34.1031 81.802 34.9121V82.2139H78.6271V21.9645H81.802V28.0645C81.802 28.8734 82.4577 29.5293 83.2669 29.5293C84.0761 29.5293 84.7317 28.8734 84.7317 28.0645V18.5904H92.5878C93.7149 18.5904 94.6323 19.5076 94.6323 20.635V86.3678Z" fill="black"/>
<path d="M62.2629 38.2151L47.8434 29.8899C46.6114 29.1786 45.0805 29.1786 43.8483 29.8899L29.4288 38.2151C28.2012 38.9237 27.4311 40.2472 27.4311 41.6749V46.9634C27.4311 47.7724 28.0868 48.4282 28.8959 48.4282C29.7051 48.4282 30.3608 47.7724 30.3608 46.9634V42.7511L44.3809 50.8456V67.0347L30.8934 59.2476C30.5647 59.0579 30.3606 58.7042 30.3606 58.3249V53.8108C30.3606 53.0019 29.7049 52.346 28.8958 52.346C28.0866 52.346 27.4309 53.0019 27.4309 53.8108V58.3249C27.4309 59.7476 28.1963 61.0733 29.4286 61.7847L43.8483 70.1099C45.0803 70.8212 46.611 70.821 47.8432 70.1099L62.2626 61.7847C63.495 61.0733 64.2604 59.7476 64.2604 58.3247V41.6745C64.2606 40.253 63.4954 38.9265 62.2629 38.2151ZM45.3129 32.4272C45.6418 32.2374 46.0501 32.2376 46.3786 32.4272L59.8661 40.2144L45.8459 48.3089L31.8258 40.2144L45.3129 32.4272ZM60.7981 59.2479L47.3106 67.0351V50.8458L61.3307 42.7513V58.3251C61.3309 58.7046 61.1268 59.0581 60.7981 59.2479Z" fill="black"/>
</svg>
