<svg width="100" height="100" viewBox="0 0 100 100" fill="none" xmlns="http://www.w3.org/2000/svg">
<path d="M34.2691 19.8947C31.219 21.0469 29.0336 23.9726 29.0336 27.4204C29.0336 28.7482 29.3872 29.9838 29.9582 31.0903C27.5389 32.0204 25.8079 34.3531 25.8079 37.0976C25.8079 39.843 27.5389 42.1749 29.9582 43.1057C29.3872 44.2122 29.0336 45.4479 29.0336 46.7749C29.0336 50.2235 31.219 53.1492 34.2691 54.3005C34.0274 54.9763 33.8722 55.6945 33.8722 56.4521C33.8722 60.0102 36.7656 62.9036 40.3237 62.9036C41.127 62.9036 41.8885 62.7374 42.5981 62.4697C43.6432 64.6267 45.8349 66.1293 48.3881 66.1293C51.9462 66.1293 54.8396 63.2359 54.8396 59.6778V14.5174C54.8396 10.9601 51.9462 8.06592 48.3881 8.06592C45.8349 8.06592 43.6432 9.56932 42.5981 11.7256C41.8885 11.4578 41.127 11.2917 40.3237 11.2917C36.7656 11.2917 33.8722 14.1859 33.8722 17.7432C33.8722 18.5016 34.0274 19.219 34.2691 19.8947ZM40.3237 14.5174C42.1028 14.5174 43.5495 15.9641 43.5495 17.7432H46.7752C46.7752 16.1933 46.2027 14.7867 45.2883 13.674C45.6624 12.3068 46.9028 11.2917 48.3881 11.2917C50.1671 11.2917 51.6138 12.7384 51.6138 14.5174V59.6778C51.6138 61.4569 50.1671 62.9036 48.3881 62.9036C46.9028 62.9036 45.6624 61.8892 45.2883 60.5213C46.2027 59.4085 46.7752 58.0028 46.7752 56.4521H43.5495C43.5495 58.2311 42.1028 59.6778 40.3237 59.6778C38.5447 59.6778 37.098 58.2311 37.098 56.4521C37.098 54.6731 38.5447 53.2263 40.3237 53.2263V50.0006C38.7526 50.0006 37.3303 50.5881 36.2112 51.5237C33.9659 51.1055 32.2594 49.1398 32.2594 46.7749C32.2594 44.1075 34.4306 41.9362 37.098 41.9362C39.7661 41.9362 41.9366 44.1075 41.9366 46.7749H45.1623C45.1623 42.3284 41.5452 38.7105 37.098 38.7105C35.2756 38.7105 33.6108 39.3413 32.2594 40.3659V40.3234C30.4803 40.3234 29.0336 38.8767 29.0336 37.0976C29.0336 35.3186 30.4803 33.8719 32.2594 33.8719V33.8301C33.6108 34.8547 35.2756 35.4848 37.098 35.4848C41.5452 35.4848 45.1623 31.8676 45.1623 27.4204H41.9366C41.9366 30.0886 39.7661 32.259 37.098 32.259C34.4306 32.259 32.2594 30.0886 32.2594 27.4204C32.2594 25.0562 33.9659 23.0905 36.2112 22.6723C37.3303 23.6079 38.7526 24.1946 40.3237 24.1946V20.9689C38.5447 20.9689 37.098 19.5222 37.098 17.7432C37.098 15.9641 38.5447 14.5174 40.3237 14.5174Z" fill="black"/>
<path d="M72.581 11.2917C71.7778 11.2917 71.017 11.4578 70.3074 11.7256C69.2616 9.56932 67.0699 8.06592 64.5167 8.06592C60.9586 8.06592 58.0652 10.9601 58.0652 14.5174V59.6778C58.0652 63.2359 60.9586 66.1293 64.5167 66.1293C67.0699 66.1293 69.2616 64.6267 70.3074 62.4697C71.017 62.7374 71.7778 62.9036 72.581 62.9036C76.1391 62.9036 79.0325 60.0102 79.0325 56.4521C79.0325 55.6945 78.8782 54.9763 78.6356 54.3005C81.6857 53.1492 83.8711 50.2235 83.8711 46.7749C83.8711 45.4479 83.5183 44.2122 82.9474 43.1057C85.3667 42.1749 87.0969 39.843 87.0969 37.0976C87.0969 34.3531 85.3667 32.0204 82.9474 31.0903C83.5183 29.9838 83.8711 28.7482 83.8711 27.4204C83.8711 23.9726 81.6857 21.0469 78.6356 19.8947C78.8782 19.219 79.0325 18.5016 79.0325 17.7432C79.0325 14.1859 76.1391 11.2917 72.581 11.2917ZM80.6454 27.4204C80.6454 30.0886 78.475 32.259 75.8068 32.259C73.1394 32.259 70.9682 30.0886 70.9682 27.4204H67.7424C67.7424 31.8676 71.3604 35.4848 75.8068 35.4848C77.6291 35.4848 79.294 34.8547 80.6454 33.8301V33.8719C82.4244 33.8719 83.8711 35.3186 83.8711 37.0976C83.8711 38.8767 82.4244 40.3234 80.6454 40.3234V40.3659C79.294 39.3413 77.6291 38.7105 75.8068 38.7105C71.3604 38.7105 67.7424 42.3284 67.7424 46.7749H70.9682C70.9682 44.1075 73.1394 41.9362 75.8068 41.9362C78.475 41.9362 80.6454 44.1075 80.6454 46.7749C80.6454 49.1398 78.9388 51.1055 76.6943 51.5237C75.5745 50.5881 74.1522 50.0006 72.581 50.0006V53.2263C74.3601 53.2263 75.8068 54.6731 75.8068 56.4521C75.8068 58.2311 74.3601 59.6778 72.581 59.6778C70.802 59.6778 69.3553 58.2311 69.3553 56.4521H66.1295C66.1295 58.0028 66.7021 59.4085 67.6164 60.5213C67.2423 61.8892 66.002 62.9036 64.5167 62.9036C62.7376 62.9036 61.2909 61.4569 61.2909 59.6778V14.5174C61.2909 12.7384 62.7376 11.2917 64.5167 11.2917C66.002 11.2917 67.2423 12.3068 67.6164 13.674C66.7021 14.7867 66.1295 16.1933 66.1295 17.7432H69.3553C69.3553 15.9641 70.802 14.5174 72.581 14.5174C74.3601 14.5174 75.8068 15.9641 75.8068 17.7432C75.8068 19.5222 74.3601 20.9689 72.581 20.9689V24.1946C74.1522 24.1946 75.5745 23.6079 76.6943 22.6723C78.9388 23.0905 80.6454 25.0562 80.6454 27.4204Z" fill="black"/>
<path d="M81.8503 10.06C74.3136 2.97613 64.4426 -0.575659 54.0834 0.0764206L54.2834 3.29508C63.7488 2.70679 72.7582 5.94356 79.6421 12.41C86.5291 18.882 90.3226 27.6512 90.3226 37.0977C90.3226 48.4815 84.6484 59.0376 75.1437 65.3363C71.8652 67.5099 69.3844 70.6105 67.8558 74.1938H44.9818C43.432 70.5845 40.9418 67.4619 37.6578 65.2686C27.8624 58.7218 22.2339 47.7885 22.6001 36.0172L19.3759 35.9172C18.9743 48.8075 25.1399 60.7828 35.8661 67.9494C38.235 69.5331 40.1267 71.6894 41.445 74.1938H37.0978V77.4195H42.7318C43.0445 78.4646 43.2949 79.5356 43.4217 80.6452H40.3236V83.871H43.5493V88.7096C43.5493 89.6019 44.2723 90.3225 45.1622 90.3225H46.7751C46.7751 95.6596 51.1152 99.9997 56.4523 99.9997C61.7894 99.9997 66.1295 95.6596 66.1295 90.3225H67.7424C68.6331 90.3225 69.3553 89.6019 69.3553 88.7096V83.871H72.581V80.6452H69.4687C69.5829 79.5372 69.8105 78.463 70.1168 77.4195H75.8068V74.1938H71.3895C72.6889 71.717 74.5695 69.5875 76.9266 68.0266C87.3339 61.1246 93.5484 49.5636 93.5484 37.0977C93.5484 26.9015 89.2839 17.0455 81.8503 10.06ZM56.4523 96.774C52.8942 96.774 50.0008 93.8806 50.0008 90.3225H62.9038C62.9038 93.8806 60.0104 96.774 56.4523 96.774ZM66.1295 87.0967H46.7751V83.871H66.1295V87.0967ZM66.2445 80.6452H46.6459C46.538 79.5474 46.364 78.4685 46.0993 77.4195H66.7462C66.4894 78.4669 66.3406 79.5506 66.2445 80.6452Z" fill="black"/>
<path d="M17.7432 11.2916C21.3013 11.2916 24.1947 14.1858 24.1947 17.7431C24.1947 18.6353 24.9177 19.3559 25.8076 19.3559C26.6983 19.3559 27.4205 18.6353 27.4205 17.7431C27.4205 14.1858 30.3139 11.2916 33.872 11.2916C34.7627 11.2916 35.4848 10.571 35.4848 9.6787C35.4848 8.78721 34.7627 8.06583 33.872 8.06583C30.3139 8.06583 27.4205 5.17242 27.4205 1.61434C27.4205 0.722847 26.6983 0.00146484 25.8076 0.00146484C24.9177 0.00146484 24.1947 0.722847 24.1947 1.61434C24.1947 5.17242 21.3013 8.06583 17.7432 8.06583C16.8533 8.06583 16.1304 8.78721 16.1304 9.6787C16.1304 10.571 16.8533 11.2916 17.7432 11.2916ZM25.8076 6.95777C26.5243 8.03512 27.4512 8.96283 28.5285 9.6787C27.4512 10.3954 26.5243 11.3223 25.8076 12.3996C25.0917 11.3223 24.164 10.3954 23.0867 9.6787C24.164 8.96283 25.0917 8.03512 25.8076 6.95777Z" fill="black"/>
<path d="M24.1947 27.4205C25.0854 27.4205 25.8076 26.6999 25.8076 25.8076C25.8076 24.9161 25.0854 24.1947 24.1947 24.1947C20.6366 24.1947 17.7432 21.3013 17.7432 17.7432C17.7432 16.8518 17.0211 16.1304 16.1304 16.1304C15.2404 16.1304 14.5175 16.8518 14.5175 17.7432C14.5175 21.3013 11.6241 24.1947 8.066 24.1947C7.17608 24.1947 6.45312 24.9161 6.45312 25.8076C6.45312 26.6999 7.17608 27.4205 8.066 27.4205C11.6241 27.4205 14.5175 30.3147 14.5175 33.872C14.5175 34.7643 15.2404 35.4848 16.1304 35.4848C17.0211 35.4848 17.7432 34.7643 17.7432 33.872C17.7432 30.3147 20.6366 27.4205 24.1947 27.4205ZM16.1304 28.5285C15.4145 27.4512 14.4868 26.5243 13.4094 25.8076C14.4868 25.0917 15.4129 24.164 16.1304 23.0867C16.847 24.164 17.7739 25.0902 18.8513 25.8076C17.7739 26.5243 16.847 27.4512 16.1304 28.5285Z" fill="black"/>
</svg>
