<svg width="73" height="91" viewBox="0 0 73 91" fill="none" xmlns="http://www.w3.org/2000/svg">
<path d="M71.9655 53.6369C71.2262 52.8975 70.0241 52.8975 69.2848 53.6369L38.394 84.5276V1.89589C38.394 0.849393 37.5448 0 36.4983 0C35.4518 0 34.6024 0.849393 34.6024 1.89589V84.5276L3.71552 53.6408C2.97615 52.9014 1.77413 52.9014 1.03476 53.6408C0.295381 54.3801 0.295381 55.5822 1.03476 56.3215L35.156 90.4428C35.3304 90.6172 35.5428 90.7576 35.774 90.856C36.0052 90.9508 36.2518 91.0002 36.4983 91.0002C36.7448 91.0002 36.9911 90.9509 37.2225 90.856C37.4577 90.7613 37.6662 90.6209 37.8405 90.4428L71.9618 56.3215C72.7049 55.5782 72.7049 54.3801 71.9655 53.6369Z" fill="#FE4E5A"/>
</svg>
