<svg width="805" height="468" viewBox="0 0 805 468" fill="none" xmlns="http://www.w3.org/2000/svg">
<g clip-path="url(#clip0_155_12)">
<path d="M712.27 182.533L671.804 208.191L689.116 235.447L729.582 209.789L712.27 182.533Z" fill="white"/>
<path d="M729.596 209.75C729.596 209.75 729.472 209.576 729.259 209.251C729.034 208.914 728.722 208.427 728.322 207.815C727.497 206.542 726.311 204.694 724.786 202.348C721.75 197.616 717.414 190.838 712.129 182.598L712.392 182.661C701.222 189.752 687.178 198.69 671.947 208.365C671.922 208.44 672.085 207.753 672.022 208.053V208.065L672.035 208.078L672.047 208.103L672.085 208.165L672.16 208.277L672.31 208.502L672.597 208.951L673.172 209.863C673.559 210.462 673.934 211.074 674.321 211.673C675.083 212.871 675.833 214.057 676.583 215.243C678.082 217.603 679.556 219.937 681.006 222.209C683.904 226.778 686.678 231.16 689.315 235.317L689.015 235.254C700.934 227.752 711.042 221.385 718.189 216.879C721.763 214.644 724.599 212.871 726.56 211.635C727.522 211.036 728.272 210.574 728.797 210.25C729.047 210.1 729.234 209.988 729.384 209.888C729.522 209.788 729.596 209.75 729.596 209.75C729.596 209.75 729.546 209.8 729.422 209.875C729.284 209.963 729.097 210.087 728.872 210.237C728.36 210.574 727.635 211.036 726.698 211.648C724.761 212.896 721.962 214.694 718.427 216.953C711.267 221.522 701.159 227.977 689.24 235.579L689.065 235.691L688.952 235.504C686.316 231.36 683.517 226.978 680.618 222.409C679.169 220.124 677.695 217.802 676.195 215.443C675.446 214.257 674.684 213.071 673.921 211.873C673.547 211.273 673.159 210.674 672.772 210.062L672.197 209.151L671.91 208.702L671.76 208.477L671.685 208.365L671.647 208.302L671.635 208.277L671.622 208.265V208.252C671.56 208.539 671.71 207.853 671.697 207.928C686.941 198.278 701.009 189.377 712.192 182.311L712.354 182.211L712.454 182.374C717.702 190.7 722 197.554 725.011 202.335C726.485 204.694 727.635 206.542 728.435 207.815C728.809 208.427 729.109 208.901 729.322 209.251C729.509 209.588 729.596 209.75 729.596 209.75Z" fill="#E0E0E0"/>
<path d="M712.292 182.499C712.304 182.499 712.267 182.711 712.179 183.085C712.079 183.51 711.942 184.071 711.779 184.758C711.392 186.256 710.855 188.353 710.205 190.925C708.818 196.181 706.907 203.371 704.795 211.386L704.745 211.573L704.545 211.548C704.07 211.498 703.558 211.448 703.046 211.398C694.45 210.537 686.666 209.763 680.968 209.189C678.182 208.889 675.921 208.639 674.284 208.465C673.534 208.377 672.934 208.302 672.472 208.24C672.06 208.19 671.835 208.152 671.847 208.128C671.847 208.115 672.072 208.115 672.485 208.14C672.947 208.177 673.559 208.215 674.309 208.277C675.946 208.415 678.22 208.614 681.006 208.852C686.703 209.388 694.487 210.112 703.096 210.924C703.608 210.974 704.12 211.024 704.595 211.074L704.345 211.248C706.519 203.246 708.468 196.068 709.893 190.825C710.605 188.278 711.192 186.194 711.617 184.696C711.817 184.009 711.979 183.46 712.104 183.035C712.204 182.686 712.267 182.499 712.292 182.499Z" fill="#E0E0E0"/>
<path d="M752.699 123.089C753.936 127.521 753.024 130.592 750.337 131.353C748.638 131.827 747.201 131.103 746.589 129.331C746.052 131.428 744.452 132.988 742.166 133.638C738.455 134.674 734.894 132.626 733.795 128.694C732.695 124.774 734.682 121.216 738.393 120.168C740.642 119.544 742.766 120.018 744.327 121.466L743.59 118.832L745.29 118.358L748.063 128.245C748.476 129.705 749.35 130.03 750.237 129.78C751.862 129.331 752.336 127.021 751.349 123.501C749.625 117.371 744.078 114.525 737.755 116.298C731.358 118.083 728.197 123.588 729.921 129.78C731.658 135.972 737.181 139.093 743.528 137.32C745.09 136.883 746.926 135.972 748.226 134.774L749.025 135.922C747.688 137.17 745.652 138.157 743.903 138.656C736.718 140.666 730.421 137.108 728.485 130.192C726.535 123.251 730.171 116.997 737.381 114.987C744.452 112.977 750.775 116.248 752.699 123.089ZM745.464 125.423C744.577 122.265 741.866 120.829 739.042 121.616C736.144 122.427 734.632 125.074 735.506 128.207C736.381 131.341 739.067 132.876 741.966 132.052C744.79 131.266 746.352 128.607 745.464 125.423Z" fill="#EBEBEB"/>
<path d="M763.304 174.96L757.207 203.045L798.907 212.083L805.004 183.998L763.304 174.96Z" fill="#EBEBEB"/>
<path d="M805 184.034C805.013 184.047 804.85 184.146 804.563 184.334C804.225 184.546 803.801 184.808 803.251 185.145C802.064 185.857 800.415 186.843 798.391 188.066C794.23 190.526 788.52 193.884 782.16 197.641L782.01 197.729L781.898 197.591C781.623 197.267 781.336 196.917 781.036 196.568C776.126 190.65 771.69 185.295 768.429 181.375C766.855 179.44 765.568 177.867 764.643 176.744C764.218 176.219 763.894 175.795 763.631 175.47C763.406 175.171 763.294 175.021 763.294 175.008C763.306 174.996 763.444 175.146 763.694 175.42C763.969 175.732 764.318 176.132 764.768 176.644C765.718 177.755 767.03 179.303 768.654 181.188C771.927 185.083 776.4 190.413 781.348 196.306C781.648 196.655 781.935 197.005 782.21 197.329L781.948 197.279C788.333 193.572 794.068 190.251 798.253 187.817C800.302 186.643 801.976 185.694 803.176 185.008C803.726 184.696 804.175 184.459 804.525 184.271C804.838 184.097 805 184.022 805 184.034Z" fill="#E0E0E0"/>
<path d="M757.209 203.296C757.096 203.159 761.07 199.876 766.08 195.968C771.09 192.061 775.251 189.003 775.363 189.152C775.476 189.29 771.503 192.573 766.48 196.48C761.47 200.388 757.321 203.446 757.209 203.296Z" fill="#E0E0E0"/>
<path d="M798.903 212.11C798.828 212.147 798.203 211.149 797.279 209.501C796.341 207.853 795.104 205.543 793.755 202.984C792.418 200.425 791.231 198.078 790.394 196.368C789.557 194.658 789.082 193.559 789.157 193.509C789.232 193.459 789.844 194.445 790.769 196.106C791.706 197.754 792.955 200.063 794.305 202.647C795.654 205.219 796.841 207.566 797.678 209.288C798.515 210.986 798.99 212.072 798.903 212.11Z" fill="#E0E0E0"/>
<path d="M569.595 272.178L553.064 307.523L605.543 332.027L622.075 296.682L569.595 272.178Z" fill="white"/>
<path d="M605.515 332.04C605.515 332.04 605.602 331.803 605.802 331.379C606.002 330.929 606.289 330.305 606.652 329.494C607.414 327.821 608.526 325.424 609.938 322.341C612.787 316.174 616.872 307.348 621.845 296.612L621.957 296.911C607.464 290.158 589.222 281.669 569.456 272.456C569.369 272.481 570.168 272.194 569.831 272.319V272.331L569.818 272.344L569.806 272.381L569.768 272.456L569.693 272.606L569.556 272.905L569.281 273.492L568.731 274.666C568.369 275.452 568.007 276.226 567.632 277C566.907 278.548 566.182 280.096 565.47 281.631C564.033 284.69 562.622 287.711 561.235 290.67C558.461 296.587 555.8 302.267 553.276 307.647L553.151 307.298C568.544 314.551 581.613 320.693 590.859 325.05C595.469 327.234 599.118 328.969 601.642 330.168C602.879 330.755 603.841 331.216 604.515 331.541C604.828 331.691 605.065 331.816 605.252 331.903C605.427 331.99 605.515 332.04 605.515 332.04C605.515 332.053 605.44 332.015 605.277 331.941C605.09 331.853 604.853 331.753 604.553 331.616C603.878 331.316 602.928 330.879 601.704 330.318C599.18 329.157 595.519 327.471 590.909 325.349C581.601 321.042 568.444 314.938 552.938 307.76L552.701 307.647L552.814 307.41C555.325 302.017 557.986 296.337 560.747 290.42C562.134 287.461 563.534 284.44 564.971 281.382C565.683 279.846 566.407 278.311 567.132 276.75C567.494 275.976 567.857 275.19 568.232 274.416L568.781 273.242L569.056 272.656L569.194 272.356L569.269 272.206L569.306 272.131L569.319 272.094L569.331 272.081V272.069C568.994 272.181 569.793 271.894 569.718 271.932C589.46 281.17 607.689 289.708 622.17 296.487L622.37 296.587L622.27 296.787C617.185 307.548 613.011 316.373 610.088 322.553C608.638 325.586 607.514 327.958 606.727 329.606C606.352 330.393 606.052 331.004 605.84 331.429C605.627 331.853 605.515 332.04 605.515 332.04Z" fill="#E0E0E0"/>
<path d="M622.045 296.699C622.045 296.712 621.82 296.811 621.37 296.974C620.87 297.149 620.208 297.373 619.396 297.648C617.609 298.235 615.136 299.046 612.087 300.045C605.827 302.042 597.256 304.789 587.71 307.835L587.486 307.909L587.373 307.697C587.111 307.185 586.823 306.636 586.548 306.074C581.826 296.762 577.565 288.335 574.441 282.168C572.942 279.135 571.705 276.675 570.83 274.89C570.431 274.066 570.118 273.405 569.868 272.905C569.656 272.443 569.556 272.206 569.569 272.194C569.581 272.181 569.718 272.418 569.968 272.855C570.231 273.355 570.581 273.991 571.018 274.803C571.942 276.563 573.217 278.997 574.791 281.993C577.952 288.148 582.275 296.537 587.048 305.825C587.336 306.374 587.61 306.936 587.873 307.448L587.535 307.31C597.106 304.327 605.69 301.643 611.962 299.683C615.036 298.746 617.534 297.997 619.321 297.448C620.146 297.211 620.808 297.011 621.32 296.874C621.795 296.737 622.045 296.687 622.045 296.699Z" fill="#E0E0E0"/>
<path d="M552.964 307.847C552.889 307.685 559.161 304.576 566.97 300.919C574.791 297.248 581.176 294.415 581.263 294.577C581.338 294.739 575.066 297.848 567.257 301.505C559.436 305.163 553.039 308.009 552.964 307.847Z" fill="#E0E0E0"/>
<path d="M605.515 332.04C605.427 332.065 604.94 330.542 604.228 328.071C603.516 325.599 602.566 322.166 601.567 318.371C600.567 314.576 599.692 311.118 599.08 308.609C598.48 306.099 598.143 304.526 598.23 304.489C598.318 304.452 598.793 305.962 599.505 308.434C600.217 310.906 601.167 314.351 602.179 318.159C603.191 321.966 604.065 325.437 604.665 327.946C605.277 330.455 605.602 332.015 605.515 332.04Z" fill="#E0E0E0"/>
<path d="M670.767 37.3813L655.493 76.3434L713.346 98.9844L728.62 60.0223L670.767 37.3813Z" fill="#EBEBEB"/>
<path d="M728.647 60.0215C728.659 60.0464 728.41 60.1588 727.947 60.3585C727.423 60.5832 726.735 60.8579 725.886 61.2199C724.012 61.9689 721.413 63.005 718.227 64.2909C711.667 66.8625 702.684 70.3704 692.663 74.2903L692.426 74.3777L692.288 74.153C691.976 73.6162 691.639 73.0544 691.289 72.4801C685.604 62.8303 680.456 54.1042 676.695 47.7126C674.884 44.5792 673.397 42.02 672.335 40.1724C671.86 39.3235 671.473 38.6369 671.173 38.1126C670.91 37.6382 670.785 37.3761 670.798 37.3761C670.81 37.3636 670.973 37.6008 671.273 38.0502C671.598 38.562 672.01 39.2237 672.535 40.0601C673.647 41.8827 675.184 44.4044 677.07 47.5003C680.881 53.867 686.079 62.5681 691.826 72.1681C692.163 72.7423 692.501 73.3166 692.826 73.8409L692.451 73.716C702.496 69.8586 711.505 66.4131 718.077 63.8789C721.3 62.668 723.924 61.6943 725.811 60.9827C726.685 60.6706 727.385 60.4209 727.922 60.2212C728.385 60.0839 728.634 60.009 728.647 60.0215Z" fill="#E0E0E0"/>
<path d="M655.467 76.6746C655.38 76.5123 661.89 72.7797 669.998 68.323C678.107 63.8664 684.754 60.3834 684.842 60.5332C684.929 60.6955 678.42 64.4281 670.311 68.8848C662.202 73.3415 655.555 76.8244 655.467 76.6746Z" fill="#E0E0E0"/>
<path d="M713.366 98.983C713.279 99.008 712.667 97.41 711.73 94.8134C710.793 92.2168 709.556 88.6091 708.219 84.6143C706.882 80.6195 705.707 76.9868 704.883 74.3278C704.47 73.0045 704.146 71.9309 703.933 71.1819C703.721 70.4328 703.621 70.0084 703.671 69.9834C703.746 69.946 704.37 71.5314 705.295 74.128C706.232 76.7246 707.469 80.3449 708.818 84.3521C710.155 88.3594 711.342 92.0046 712.154 94.6512C712.567 95.9744 712.892 97.048 713.092 97.797C713.316 98.5461 713.416 98.9705 713.366 98.983Z" fill="#E0E0E0"/>
<path d="M734.679 281.603L673.843 294.224L682.357 335.195L743.193 322.574L734.679 281.603Z" fill="#EBEBEB"/>
<path d="M734.683 281.621C734.696 281.633 734.558 281.858 734.283 282.282C733.958 282.757 733.546 283.368 733.021 284.13C731.859 285.778 730.26 288.075 728.286 290.883C724.2 296.613 718.59 304.466 712.356 313.217L712.206 313.429L711.968 313.317C711.419 313.042 710.819 312.755 710.219 312.455C700.186 307.487 691.103 302.98 684.456 299.684C681.22 298.049 678.571 296.713 676.672 295.752C675.797 295.303 675.11 294.941 674.573 294.653C674.098 294.391 673.848 294.254 673.861 294.229C673.873 294.217 674.135 294.316 674.623 294.541C675.172 294.791 675.885 295.128 676.772 295.54C678.696 296.464 681.357 297.737 684.631 299.297C691.303 302.556 700.411 307 710.482 311.906C711.081 312.206 711.681 312.493 712.231 312.767L711.856 312.867C718.153 304.166 723.813 296.351 727.949 290.646C729.985 287.875 731.647 285.628 732.834 284.005C733.396 283.268 733.833 282.682 734.183 282.22C734.496 281.82 734.671 281.608 734.683 281.621Z" fill="#E0E0E0"/>
<path d="M682.493 335.511C682.33 335.424 685.741 328.745 690.089 320.58C694.45 312.416 698.111 305.875 698.261 305.95C698.423 306.037 695.012 312.716 690.652 320.88C686.316 329.057 682.655 335.598 682.493 335.511Z" fill="#E0E0E0"/>
<path d="M743.203 322.59C743.153 322.665 741.754 321.667 739.555 319.994C737.356 318.321 734.344 315.986 731.033 313.365C727.722 310.743 724.761 308.346 722.625 306.574C721.563 305.687 720.7 304.963 720.113 304.452C719.526 303.94 719.214 303.64 719.239 303.59C719.289 303.515 720.663 304.501 722.862 306.174C725.061 307.847 728.085 310.194 731.408 312.816C734.719 315.437 737.705 317.847 739.842 319.619C740.904 320.506 741.766 321.23 742.353 321.741C742.916 322.253 743.228 322.553 743.203 322.59Z" fill="#E0E0E0"/>
<path d="M328.214 -0.0146281L253.151 15.5581L263.657 66.1114L338.72 50.5387L328.214 -0.0146281Z" fill="#EBEBEB"/>
<path d="M328.215 0.000568084C328.24 0.0130517 328.065 0.300176 327.715 0.82449C327.315 1.41122 326.803 2.16024 326.166 3.109C324.741 5.14384 322.755 7.96514 320.318 11.4356C315.27 18.5138 308.361 28.2012 300.652 38.987L300.465 39.2492L300.177 39.1119C299.49 38.7748 298.753 38.4128 298.016 38.0508C285.634 31.9088 274.426 26.3661 266.218 22.2964C262.219 20.274 258.958 18.6262 256.622 17.4402C255.547 16.8785 254.685 16.4291 254.023 16.092C253.436 15.7799 253.136 15.5927 253.136 15.5802C253.148 15.5552 253.473 15.6925 254.086 15.9672C254.76 16.2793 255.647 16.6912 256.734 17.1906C259.108 18.3266 262.394 19.8995 266.442 21.8345C274.676 25.8542 285.909 31.3346 298.341 37.3891C299.078 37.7512 299.815 38.1132 300.502 38.4502L300.027 38.5626C307.799 27.8142 314.783 18.1768 319.881 11.136C322.392 7.71547 324.441 4.9441 325.916 2.93423C326.603 2.02292 327.153 1.29887 327.577 0.737104C327.977 0.237758 328.19 -0.0119156 328.215 0.000568084Z" fill="#E0E0E0"/>
<path d="M263.819 66.5004C263.619 66.4005 267.829 58.1488 273.202 48.0745C278.575 38.0002 283.097 29.9233 283.297 30.0231C283.497 30.123 279.299 38.3747 273.914 48.449C268.529 58.5233 264.019 66.6003 263.819 66.5004Z" fill="#E0E0E0"/>
<path d="M338.722 50.5463C338.647 50.6337 336.936 49.3978 334.212 47.338C331.488 45.2782 327.777 42.382 323.704 39.1612C319.631 35.9279 315.958 32.9693 313.321 30.7847C312.009 29.6986 310.947 28.7998 310.223 28.1631C309.498 27.5264 309.111 27.1519 309.136 27.102C309.186 27.0021 310.897 28.2255 313.609 30.2978C316.32 32.3576 320.056 35.2538 324.142 38.4996C328.227 41.7453 331.913 44.7164 334.549 46.8886C335.861 47.9747 336.923 48.8735 337.648 49.5102C338.373 50.1343 338.747 50.5089 338.722 50.5463Z" fill="#E0E0E0"/>
<path d="M279.662 433.945C253.923 418.939 245.814 387.842 244.452 359.417C244.228 354.673 243.291 349.73 245.215 345.386C247.126 341.054 252.149 337.783 256.56 339.431C260.208 340.804 262.082 344.761 264.331 347.982C267.317 352.264 271.528 355.672 276.313 357.682C279.462 359.005 283.273 359.654 286.109 357.769C290.007 355.185 290.032 349.505 289.62 344.799C288.845 336.035 288.07 327.259 287.296 318.496C286.883 313.789 286.471 308.983 287.571 304.402C288.67 299.82 291.569 295.401 295.942 293.778C300.327 292.155 306.075 294.29 307.399 298.821C307.949 300.707 307.724 302.729 308.011 304.676C308.299 306.624 309.386 308.709 311.297 309.096C313.221 309.495 314.996 308.009 316.295 306.511C320.768 301.356 323.567 294.964 326.153 288.622C328.74 282.281 331.226 275.802 335.212 270.259C339.197 264.716 344.97 260.11 351.679 259.173C358.401 258.237 365.923 261.807 368.172 268.286C370.421 274.778 367.097 281.831 363.324 287.549C357.726 296.025 350.892 303.69 343.133 310.194C341.734 311.368 340.222 312.641 339.797 314.426C339.035 317.647 342.258 320.518 345.444 321.305C349.055 322.191 352.829 321.504 356.539 321.642C360.25 321.779 364.361 323.065 366.035 326.423C368.359 331.079 364.748 336.447 361.05 340.08C353.653 347.345 345.02 353.313 335.649 357.644C332.288 359.192 328.727 360.603 326.141 363.262C323.542 365.921 322.205 370.29 324.167 373.474C326.128 376.657 330.551 377.356 334.125 376.395C337.698 375.421 340.784 373.187 344.145 371.601C350.417 368.63 358.813 368.393 363.424 373.649C366.448 377.107 367.11 382.2 366.085 386.694C365.061 391.188 362.574 395.195 359.9 398.915C350.517 411.923 338.035 422.809 323.442 429.238C308.836 435.63 295.042 438.177 279.662 433.945Z" fill="#EBEBEB"/>
<path d="M281.011 454.992C281.123 443.669 282.498 430.212 285.534 415.569C288.545 400.913 293.168 385.134 298.578 368.78C299.94 364.698 301.302 360.666 302.626 356.696C303.963 352.726 305.288 348.794 306.824 345.036C309.86 337.496 313.359 330.468 316.882 323.901C320.406 317.335 323.992 311.23 327.39 305.55C330.801 299.87 334.075 294.639 337.261 289.996C343.608 280.683 349.618 273.792 353.928 269.235C356.077 266.951 357.814 265.228 359.001 264.079C359.576 263.53 360.025 263.106 360.363 262.781C360.675 262.494 360.838 262.344 360.85 262.357C360.863 262.369 360.725 262.531 360.425 262.844C360.1 263.181 359.676 263.63 359.126 264.204C357.976 265.39 356.29 267.15 354.178 269.472C349.942 274.104 344.045 281.02 337.773 290.345C334.624 294.989 331.388 300.232 328.015 305.912C324.654 311.605 321.093 317.709 317.595 324.276C314.096 330.83 310.623 337.833 307.611 345.348C306.087 349.093 304.775 352.988 303.438 356.97C302.114 360.94 300.765 364.972 299.39 369.055C293.993 385.383 289.345 401.125 286.309 415.731C283.247 430.324 281.811 443.719 281.623 455.005" fill="#E0E0E0"/>
<path d="M307.074 344.974C307.012 344.986 306.799 344.287 306.45 343.001C306.1 341.715 305.65 339.855 305.125 337.533C304.076 332.902 302.839 326.448 301.514 319.345C300.177 312.229 298.865 305.812 297.741 301.218C297.191 298.909 296.729 297.049 296.379 295.775C296.042 294.49 295.892 293.778 295.954 293.753C296.017 293.741 296.279 294.415 296.704 295.676C297.141 296.924 297.704 298.772 298.328 301.069C299.603 305.65 301.027 312.067 302.351 319.195C303.651 326.223 304.813 332.565 305.712 337.421C306.125 339.606 306.487 341.453 306.774 342.939C307.024 344.237 307.124 344.961 307.074 344.974Z" fill="#E0E0E0"/>
<path d="M366.722 328.707C366.735 328.77 365.873 328.932 364.336 329.194C362.787 329.456 360.563 329.831 357.814 330.38C352.316 331.429 344.77 333.152 336.523 335.411C328.277 337.683 320.918 340.068 315.633 341.94C312.984 342.864 310.86 343.663 309.386 344.2C307.911 344.749 307.099 345.024 307.074 344.974C307.049 344.911 307.836 344.537 309.261 343.888C310.698 343.251 312.784 342.352 315.421 341.353C320.656 339.331 328.027 336.847 336.286 334.562C344.557 332.303 352.154 330.667 357.689 329.769C360.463 329.294 362.712 329.02 364.273 328.857C365.848 328.707 366.71 328.658 366.722 328.707Z" fill="#E0E0E0"/>
<path d="M286.184 414.395C286.159 414.408 285.996 414.171 285.709 413.696C285.384 413.122 284.984 412.435 284.497 411.586C283.447 409.751 281.998 407.067 280.261 403.709C276.775 397.018 272.24 387.618 267.38 377.181C262.519 366.733 258.084 357.307 254.735 350.554C253.099 347.271 251.749 344.574 250.75 342.564C250.325 341.69 249.962 340.979 249.675 340.38C249.438 339.88 249.325 339.606 249.35 339.593C249.375 339.581 249.538 339.818 249.825 340.305C250.15 340.879 250.55 341.566 251.037 342.414C252.086 344.25 253.536 346.934 255.273 350.292C258.758 356.983 263.294 366.383 268.154 376.832C273.015 387.268 277.45 396.693 280.799 403.46C282.435 406.743 283.785 409.439 284.784 411.449C285.209 412.323 285.571 413.047 285.859 413.634C286.109 414.108 286.221 414.37 286.184 414.395Z" fill="#E0E0E0"/>
<path d="M364.561 381.888C364.573 381.913 364.298 382.05 363.786 382.287C363.174 382.549 362.424 382.874 361.512 383.261C359.413 384.135 356.577 385.321 353.116 386.756C346.032 389.715 336.299 393.897 325.541 398.541C314.783 403.185 305 407.292 297.853 410.101C294.28 411.512 291.381 412.61 289.357 413.334C288.42 413.659 287.645 413.933 287.021 414.158C286.483 414.333 286.196 414.42 286.184 414.383C286.171 414.358 286.446 414.22 286.958 413.983C287.571 413.721 288.32 413.397 289.232 413.01C291.331 412.136 294.168 410.95 297.628 409.514C304.713 406.568 314.458 402.373 325.216 397.717C335.974 393.073 345.757 388.966 352.904 386.157C356.477 384.747 359.376 383.648 361.4 382.924C362.337 382.599 363.099 382.325 363.736 382.1C364.261 381.938 364.548 381.863 364.561 381.888Z" fill="#E0E0E0"/>
<path d="M799.777 454.093C799.777 454.268 620.721 454.418 399.907 454.418C179.019 454.418 0 454.28 0 454.093C0 453.918 179.019 453.769 399.907 453.769C620.733 453.769 799.777 453.918 799.777 454.093Z" fill="#263238"/>
<path d="M142.198 40.9589C139.575 36.9267 136.351 33.2191 132.64 29.9483C131.016 28.5252 129.004 27.0896 126.643 27.3393C124.831 27.539 123.257 28.7374 122.332 30.1606C121.408 31.5837 121.045 33.2066 120.783 34.792C120.608 35.8781 120.458 36.9891 119.921 38.0003C119.384 39.0115 118.347 39.9103 117.11 40.0476C116.248 40.1475 115.423 39.8604 114.561 39.8229C111.837 39.6981 109.501 42.1199 109.101 44.5293C108.701 46.9261 108.988 48.187 109.138 51.4827L142.198 40.9589Z" fill="#E8505B"/>
<g opacity="0.3">
<g opacity="0.3">
<path opacity="0.3" d="M142.198 40.9589C139.575 36.9267 136.351 33.2191 132.64 29.9483C131.016 28.5252 129.004 27.0896 126.643 27.3393C124.831 27.539 123.257 28.7374 122.332 30.1606C121.408 31.5837 121.045 33.2066 120.783 34.792C120.608 35.8781 120.458 36.9891 119.921 38.0003C119.384 39.0115 118.347 39.9103 117.11 40.0476C116.248 40.1475 115.423 39.8604 114.561 39.8229C111.837 39.6981 109.501 42.1199 109.101 44.5293C108.701 46.9261 108.988 48.187 109.138 51.4827L142.198 40.9589Z" fill="black"/>
</g>
</g>
<path d="M108.888 47.5753C108.888 47.5753 123.544 37.8255 139.45 37.1265L140.737 38.8242L109.176 49.8598L108.888 47.5753Z" fill="#263238"/>
<path d="M109.288 47.9872C107.964 48.6613 106.027 49.4228 101.579 52.5188C99.1928 54.1791 98.0558 55.9143 97.6185 56.7757C97.1812 57.6371 97.2687 59.1726 97.9809 59.8217C99.8675 61.532 104.915 62.256 113.374 61.0826C124.644 59.5221 123.482 56.5135 134.527 53.8296C138.463 52.8683 143.098 52.5812 146.959 51.3828C150.82 50.1843 154.555 46.2894 157.367 43.3807C157.966 42.7566 158.291 41.9451 158.816 41.246C160.24 39.361 158.878 38.1251 158.329 37.451C157.642 36.6021 156.417 36.4648 155.33 36.4149C143.398 35.9155 122.07 41.4832 109.163 48.0371" fill="#E8505B"/>
<g opacity="0.2">
<g opacity="0.2">
<path opacity="0.2" d="M131.491 43.8926C130.779 43.8926 119.146 48.0496 113.986 51.4452C109.613 54.3289 105.652 56.7008 103.766 61.5819C103.766 61.5819 106.564 61.9939 112.699 61.1075C121.558 59.8342 124.556 59.3848 133.09 56.7008C134.19 56.3513 135.364 55.9393 136.014 54.9781C136.538 54.2041 136.626 53.2179 136.563 52.2941C136.339 48.8736 134.314 45.6153 131.341 43.9175" fill="black"/>
</g>
</g>
<path d="M116.198 106.561L138.975 104.738C139.112 102.079 138.925 91.7924 138.925 91.7924C138.925 91.7924 148.408 90.3193 148.521 80.8442C148.633 71.3691 146.996 49.6351 146.996 49.6351C136.026 44.9287 123.357 46.5141 113.899 53.7921L112.499 54.8782L116.198 106.561Z" fill="#B78876"/>
<path d="M138.95 91.6676C138.95 91.6676 132.965 92.1544 126.593 88.1597C126.593 88.1597 129.517 94.9757 138.975 94.1269L138.95 91.6676Z" fill="#AA6550"/>
<path d="M113.674 64.6904C113.511 64.6155 107.164 62.7679 107.364 69.2345C107.577 75.7135 114.036 74.1655 114.036 73.9783C114.049 73.8035 113.674 64.6904 113.674 64.6904Z" fill="#B78876"/>
<path d="M111.987 71.5939C111.962 71.5689 111.875 71.6813 111.687 71.7687C111.5 71.8561 111.187 71.9309 110.85 71.8186C110.163 71.5939 109.551 70.5203 109.476 69.3593C109.438 68.7726 109.551 68.2108 109.738 67.7364C109.925 67.2621 110.213 66.9125 110.563 66.8376C110.9 66.7502 111.15 66.95 111.237 67.1247C111.325 67.2995 111.287 67.4368 111.325 67.4493C111.337 67.4618 111.462 67.337 111.4 67.0748C111.375 66.95 111.287 66.8002 111.137 66.6753C110.975 66.5505 110.75 66.5006 110.513 66.5255C110.013 66.5755 109.576 67.0498 109.363 67.5617C109.126 68.086 108.988 68.7227 109.026 69.3843C109.113 70.6826 109.813 71.881 110.763 72.1307C111.225 72.2306 111.6 72.0808 111.787 71.9309C111.975 71.7562 112.012 71.6064 111.987 71.5939Z" fill="#AA6550"/>
<path d="M144.922 64.4906C144.947 65.2022 144.36 65.8138 143.623 65.8513C142.873 65.8888 142.248 65.352 142.223 64.6279C142.198 63.9163 142.786 63.3046 143.523 63.2672C144.272 63.2297 144.897 63.779 144.922 64.4906Z" fill="#263238"/>
<path d="M145.209 62.9676C145.047 63.1423 144.01 62.3808 142.561 62.3933C141.111 62.3808 140.037 63.1299 139.874 62.9426C139.799 62.8677 139.962 62.5431 140.437 62.2061C140.899 61.869 141.674 61.5444 142.586 61.5444C143.498 61.5444 144.26 61.8815 144.697 62.2186C145.147 62.5681 145.297 62.8927 145.209 62.9676Z" fill="#263238"/>
<path d="M130.654 64.8276C130.679 65.5392 130.091 66.1509 129.354 66.1883C128.605 66.2258 127.98 65.689 127.955 64.9649C127.93 64.2534 128.517 63.6417 129.254 63.6042C130.004 63.5668 130.629 64.1161 130.654 64.8276Z" fill="#263238"/>
<path d="M130.891 63.2422C130.729 63.417 129.692 62.6555 128.242 62.668C126.793 62.6555 125.718 63.4045 125.556 63.2173C125.481 63.1424 125.643 62.8178 126.118 62.4807C126.58 62.1437 127.355 61.8191 128.267 61.8191C129.179 61.8191 129.941 62.1562 130.379 62.4932C130.829 62.8428 130.978 63.1549 130.891 63.2422Z" fill="#263238"/>
<path d="M136.189 74.0282C136.176 73.9408 137.088 73.791 138.55 73.6037C138.925 73.5663 139.275 73.4914 139.337 73.2417C139.425 72.9671 139.275 72.5676 139.087 72.1431C138.737 71.2443 138.375 70.2956 137.988 69.3094C136.463 65.2771 135.351 61.969 135.514 61.9065C135.676 61.8441 137.051 65.0649 138.575 69.0971C138.937 70.0958 139.3 71.0321 139.625 71.9434C139.762 72.3679 140.012 72.8422 139.812 73.404C139.712 73.6786 139.437 73.8784 139.2 73.9533C138.962 74.0282 138.75 74.0282 138.563 74.0407C137.101 74.1031 136.189 74.1156 136.189 74.0282Z" fill="#263238"/>
<path d="M131.891 75.0392C132.128 75.0267 132.128 76.5997 133.49 77.7232C134.839 78.8468 136.526 78.672 136.538 78.8967C136.563 78.9966 136.164 79.2088 135.451 79.2213C134.752 79.2462 133.74 79.0215 132.903 78.3349C132.078 77.6483 131.728 76.7245 131.666 76.0879C131.616 75.4137 131.791 75.0267 131.891 75.0392Z" fill="#263238"/>
<path d="M131.278 57.5372C131.141 57.9367 129.679 57.7494 127.967 57.9492C126.256 58.1239 124.881 58.6233 124.644 58.2613C124.544 58.0865 124.781 57.7245 125.344 57.3375C125.893 56.9505 126.78 56.5884 127.805 56.4761C128.829 56.3637 129.767 56.526 130.391 56.7757C131.016 57.0379 131.328 57.3499 131.278 57.5372Z" fill="#263238"/>
<path d="M144.672 58.7606C144.41 59.0852 143.41 58.7481 142.211 58.7357C140.999 58.6732 139.987 58.9604 139.75 58.6108C139.65 58.4485 139.812 58.1115 140.249 57.7994C140.687 57.4873 141.424 57.2376 142.248 57.2626C143.073 57.2876 143.798 57.5872 144.21 57.9242C144.647 58.2488 144.797 58.5983 144.672 58.7606Z" fill="#263238"/>
<path d="M163.551 146.82L165.7 113.664C158.116 106.224 154.156 102.778 143.598 101.542C141.986 101.355 140.699 101.23 139.725 101.105L139.662 94.9383C131.478 94.8883 128.942 101.355 128.942 101.355C124.307 93.9895 114.786 94.9882 114.786 94.9882L115.223 101.068C111.475 101.23 108.364 102.379 105.165 102.99C95.1072 104.913 87.8729 112.241 85.8613 118.994L95.557 145.322L95.1571 169.64L95.1446 178.604L95.2071 211.536H167.312C167.5 203.683 163.551 146.82 163.551 146.82Z" fill="#E0E0E0"/>
<path d="M151.632 447.377L151.707 434.731L128.005 434.444L127.705 452.932L129.179 453.045C135.714 453.482 162.439 454.83 166.825 453.556C171.71 452.146 151.632 447.377 151.632 447.377Z" fill="#E8505B"/>
<g opacity="0.4">
<g opacity="0.4">
<g opacity="0.4">
<g opacity="0.4">
<g opacity="0.4">
<path opacity="0.4" d="M136.301 452.857C135.989 450.872 134.914 449.025 133.34 447.777C131.766 446.528 129.829 445.854 127.817 445.991L127.73 452.608L136.301 452.857Z" fill="black"/>
</g>
</g>
</g>
</g>
</g>
<g opacity="0.4">
<g opacity="0.4">
<g opacity="0.4">
<path opacity="0.4" d="M161.44 450.048C161.44 450.048 168.474 452.171 167.574 453.319C166.675 454.468 139.625 454.131 127.705 452.932L127.755 452.408L159.316 453.082C159.303 453.082 160.053 450.098 161.44 450.048Z" fill="black"/>
</g>
</g>
</g>
<path d="M127.38 452.383C127.38 452.395 127.518 452.408 127.792 452.433C128.142 452.458 128.53 452.483 128.967 452.52C130.141 452.583 131.578 452.67 133.277 452.757C136.913 452.932 141.936 453.107 147.496 453.182C153.056 453.257 158.079 453.219 161.727 453.132C163.426 453.082 164.863 453.045 166.038 453.007C166.475 452.982 166.862 452.97 167.212 452.957C167.475 452.945 167.625 452.932 167.625 452.92C167.625 452.907 167.487 452.907 167.212 452.895C166.862 452.895 166.475 452.895 166.038 452.895C164.863 452.907 163.426 452.92 161.727 452.932C158.091 452.957 153.056 452.97 147.509 452.895C141.961 452.82 136.938 452.67 133.29 452.545C131.591 452.483 130.154 452.433 128.979 452.395C128.542 452.383 128.155 452.37 127.805 452.358C127.518 452.37 127.38 452.383 127.38 452.383Z" fill="#263238"/>
<path d="M159.291 453.444C159.378 453.457 159.453 452.433 160.115 451.397C160.765 450.361 161.652 449.836 161.602 449.774C161.59 449.699 160.565 450.136 159.865 451.247C159.166 452.358 159.216 453.457 159.291 453.444Z" fill="#263238"/>
<path d="M152.344 449.811C152.406 449.849 152.744 449.449 153.106 448.912C153.456 448.376 153.693 447.901 153.618 447.851C153.556 447.814 153.219 448.213 152.856 448.75C152.506 449.299 152.281 449.774 152.344 449.811Z" fill="#263238"/>
<path d="M150.432 448.775C150.482 448.838 150.857 448.588 151.269 448.226C151.682 447.864 151.969 447.527 151.919 447.464C151.869 447.402 151.494 447.652 151.082 448.014C150.682 448.376 150.382 448.713 150.432 448.775Z" fill="#263238"/>
<path d="M149.258 446.528C149.258 446.603 149.808 446.69 150.495 446.703C151.182 446.715 151.732 446.665 151.732 446.591C151.732 446.516 151.182 446.428 150.495 446.416C149.808 446.391 149.258 446.441 149.258 446.528Z" fill="#263238"/>
<path d="M148.858 444.943C148.833 445.018 149.433 445.292 150.232 445.367C151.032 445.442 151.669 445.267 151.657 445.192C151.644 445.105 151.019 445.142 150.257 445.08C149.495 445.005 148.883 444.868 148.858 444.943Z" fill="#263238"/>
<path d="M153.169 447.752C153.169 447.789 153.756 447.864 154.693 447.764C155.168 447.714 155.717 447.614 156.317 447.427C156.617 447.327 156.929 447.252 157.254 447.052C157.404 446.953 157.579 446.815 157.642 446.591C157.704 446.366 157.592 446.104 157.417 445.979C155.967 445.205 154.505 446.004 153.956 446.753C153.656 447.127 153.518 447.502 153.443 447.764C153.381 448.026 153.381 448.176 153.393 448.176C153.443 448.201 153.506 447.577 154.106 446.89C154.406 446.553 154.843 446.229 155.418 446.066C155.955 445.916 156.729 445.879 157.229 446.216C157.467 446.403 157.367 446.678 157.104 446.84C156.854 447.003 156.53 447.09 156.242 447.19C155.667 447.377 155.13 447.502 154.668 447.577C153.756 447.714 153.169 447.714 153.169 447.752Z" fill="#263238"/>
<path d="M153.568 447.839C153.593 447.851 153.818 447.464 153.756 446.79C153.718 446.453 153.606 446.054 153.356 445.679C153.094 445.342 152.756 444.868 152.094 444.893C151.744 444.93 151.569 445.33 151.619 445.592C151.644 445.854 151.757 446.091 151.869 446.278C152.094 446.665 152.344 446.978 152.581 447.202C153.056 447.677 153.431 447.851 153.443 447.826C153.468 447.789 153.144 447.552 152.731 447.065C152.531 446.815 152.306 446.516 152.107 446.141C151.907 445.816 151.769 445.242 152.144 445.167C152.531 445.13 152.906 445.517 153.144 445.829C153.381 446.166 153.506 446.516 153.556 446.828C153.668 447.427 153.518 447.826 153.568 447.839Z" fill="#263238"/>
<path d="M127.942 445.917C127.942 445.967 128.617 445.867 129.692 446.004C130.754 446.141 132.215 446.591 133.49 447.627C134.764 448.663 135.501 450.011 135.839 451.022C136.189 452.046 136.214 452.72 136.264 452.72C136.276 452.72 136.289 452.545 136.276 452.246C136.251 451.934 136.189 451.497 136.039 450.96C135.739 449.911 135.002 448.488 133.677 447.402C132.353 446.316 130.816 445.879 129.717 445.804C129.167 445.754 128.717 445.779 128.417 445.817C128.105 445.854 127.942 445.904 127.942 445.917Z" fill="#263238"/>
<path d="M130.516 436.092C130.441 436.092 130.316 438.264 130.254 440.948C130.191 443.632 130.191 445.817 130.279 445.817C130.354 445.817 130.479 443.644 130.541 440.96C130.616 438.276 130.604 436.092 130.516 436.092Z" fill="#263238"/>
<path d="M139.312 450.585C139.3 450.66 140.837 450.935 142.773 450.972C144.697 451.022 146.247 450.81 146.247 450.735C146.234 450.648 144.697 450.723 142.786 450.685C140.862 450.648 139.312 450.498 139.312 450.585Z" fill="#263238"/>
<path d="M134.664 450.523C134.602 450.585 134.789 450.847 134.939 451.209C135.102 451.559 135.177 451.884 135.252 451.884C135.327 451.884 135.376 451.509 135.202 451.097C135.027 450.673 134.714 450.46 134.664 450.523Z" fill="#263238"/>
<path d="M132.94 448.313C132.878 448.363 133.028 448.613 133.277 448.863C133.515 449.112 133.765 449.275 133.815 449.225C133.877 449.175 133.727 448.925 133.477 448.675C133.24 448.426 133.003 448.263 132.94 448.313Z" fill="#263238"/>
<path d="M130.454 447.29C130.466 447.365 130.779 447.377 131.128 447.502C131.478 447.627 131.728 447.814 131.791 447.764C131.853 447.727 131.666 447.377 131.228 447.227C130.791 447.077 130.429 447.215 130.454 447.29Z" fill="#263238"/>
<path d="M128.667 446.803C128.642 446.878 128.767 447.003 128.967 447.077C129.167 447.152 129.342 447.165 129.379 447.09C129.404 447.015 129.279 446.89 129.079 446.815C128.879 446.728 128.704 446.728 128.667 446.803Z" fill="#263238"/>
<path d="M79.6391 439.338L77.3777 448.813C77.3777 448.813 61.8597 468.949 57.0743 467.963C53.9382 467.313 57.7865 462.07 63.6963 446.778L64.9333 440.461L79.6391 439.338Z" fill="#E8505B"/>
<path d="M56.4496 464.991C56.4746 464.967 56.5995 465.441 57.2742 465.778C57.9239 466.14 59.1359 466.177 60.2479 465.366C62.3594 463.693 65.0832 461.047 67.9694 458.051C70.8431 455.042 73.2545 452.146 74.9538 450.011C75.7034 449.037 76.3656 448.189 76.9404 447.464C77.1278 447.215 77.3152 446.99 77.4776 446.765C77.6026 446.603 77.6775 446.528 77.6775 446.528C77.69 446.528 77.6275 446.628 77.5151 446.79C77.3652 447.015 77.2027 447.252 77.0153 447.514C76.578 448.139 75.9283 449.037 75.1037 450.123C73.4419 452.296 71.043 455.217 68.1693 458.238C65.2706 461.246 62.5468 463.855 60.3603 465.516C59.7731 465.89 59.1734 466.127 58.6111 466.165C58.0489 466.19 57.5741 466.053 57.2367 465.865C56.8869 465.678 56.687 465.428 56.587 465.266C56.4621 465.104 56.4496 464.991 56.4496 464.991Z" fill="#263238"/>
<path d="M58.6486 458.512C58.6361 458.487 59.1233 458.313 59.923 458.375C60.7226 458.425 61.8096 458.75 62.8467 459.386C63.8962 460.01 64.6458 460.897 64.9707 461.633C65.308 462.37 65.333 462.869 65.308 462.869C65.2581 462.882 65.1581 462.395 64.7958 461.721C64.4334 461.034 63.7088 460.235 62.6967 459.623C61.6972 458.999 60.6601 458.662 59.898 458.562C59.1358 458.462 58.6486 458.562 58.6486 458.512Z" fill="#263238"/>
<path d="M73.3295 453.794C73.317 453.794 73.2421 453.644 73.1421 453.344C73.0421 453.045 72.9172 452.608 72.8422 452.046C72.6423 450.935 72.7548 449.287 73.5669 447.739C74.3541 446.166 75.666 445.142 76.703 444.693C77.2278 444.456 77.6776 444.343 77.9899 444.293C78.3023 444.243 78.4772 444.244 78.4772 444.268C78.4897 444.318 77.7775 444.381 76.7905 444.868C75.8159 445.342 74.579 446.353 73.8168 447.864C73.0421 449.362 72.9047 450.935 73.0421 452.021C73.1671 453.119 73.3795 453.781 73.3295 453.794Z" fill="#263238"/>
<path d="M78.6521 440.948C78.7146 440.973 78.3648 442.296 78.0774 443.969C77.79 445.654 77.3527 446.978 77.2653 446.953C77.2028 446.928 77.5151 445.604 77.8025 443.919C78.0899 442.234 78.5772 440.91 78.6521 440.948Z" fill="#263238"/>
<path d="M63.4215 448.114C63.409 448.039 64.3211 447.876 65.4081 448.139C66.5076 448.388 67.2448 448.925 67.2073 448.987C67.1698 449.062 66.3952 448.65 65.3456 448.413C64.3086 448.164 63.434 448.188 63.4215 448.114Z" fill="#263238"/>
<path d="M63.1091 449.736C63.0841 449.674 63.8588 449.449 64.7834 449.674C65.7204 449.886 66.3077 450.436 66.2577 450.485C66.2077 450.548 65.5955 450.148 64.7209 449.949C63.8588 449.736 63.1216 449.811 63.1091 449.736Z" fill="#263238"/>
<path d="M61.8721 451.771C61.8222 451.709 62.6093 451.309 63.6088 451.547C64.6084 451.771 65.1456 452.47 65.0832 452.495C65.0332 452.558 64.4585 452.008 63.5464 451.821C62.6343 451.609 61.8846 451.846 61.8721 451.771Z" fill="#263238"/>
<path d="M64.496 447.427C64.4835 447.377 65.2082 447.227 66.3202 446.803C66.8699 446.591 67.5197 446.291 68.1944 445.904C68.5317 445.704 68.8815 445.492 69.2189 445.242C69.5313 445.005 69.8811 444.668 69.8686 444.294C69.8561 443.919 69.3938 443.719 69.044 443.819C68.6691 443.907 68.3693 444.194 68.0819 444.456C67.5072 444.993 67.0199 445.505 66.6326 445.954C65.8454 446.84 65.3956 447.427 65.3706 447.402C65.3581 447.39 65.4456 447.227 65.633 446.953C65.8204 446.678 66.1078 446.279 66.4826 445.817C66.8699 445.355 67.3447 444.818 67.907 444.269C68.1944 443.994 68.5067 443.669 68.9815 443.545C69.4188 443.42 70.1185 443.657 70.1435 444.269C70.131 444.843 69.7187 445.18 69.3688 445.455C69.0065 445.704 68.6566 445.916 68.3068 446.116C67.6071 446.503 66.9449 446.778 66.3827 446.978C65.8079 447.177 65.3456 447.29 65.0083 447.352C64.6834 447.427 64.496 447.44 64.496 447.427Z" fill="#263238"/>
<path d="M65.3081 447.227C65.2581 447.227 65.1956 446.553 65.0207 445.492C64.9207 444.968 64.7833 444.331 64.4959 443.694C64.346 443.382 64.1586 443.058 63.9212 442.783C63.6838 442.521 63.3215 442.284 63.0341 442.458C62.7467 442.621 62.7092 443.058 62.7467 443.407C62.7967 443.769 62.9092 444.131 63.0466 444.443C63.3215 445.092 63.7088 445.604 64.0586 446.004C64.7708 446.815 65.3331 447.19 65.3081 447.227C65.2956 447.24 65.1456 447.165 64.8958 446.99C64.6459 446.815 64.296 446.541 63.9087 446.141C63.5339 445.742 63.1091 445.23 62.8092 444.556C62.6593 444.219 62.5343 443.857 62.4719 443.445C62.4344 443.058 62.4219 442.521 62.8967 442.221C63.3964 441.959 63.8712 442.321 64.1211 442.608C64.396 442.92 64.5709 443.257 64.7333 443.594C65.0332 444.269 65.1456 444.918 65.2206 445.467C65.2956 446.004 65.3081 446.453 65.3206 446.753C65.3331 447.065 65.3206 447.227 65.3081 447.227Z" fill="#263238"/>
<g opacity="0.4">
<g opacity="0.4">
<g opacity="0.4">
<path opacity="0.4" d="M77.3777 448.813L78.4647 444.256C78.4647 444.256 74.6664 444.955 73.6794 447.801C72.6923 450.648 72.9422 452.67 72.9422 452.67L64.6834 461.558C64.6834 461.558 62.6094 457.514 58.861 458.487C58.861 458.487 55.9124 464.979 55.9998 466.602C56.0998 468.387 57.9864 468.037 58.6611 467.725C58.961 467.588 62.5344 465.541 66.0578 461.895C70.4183 457.351 75.2537 451.596 77.3777 448.813Z" fill="black"/>
</g>
</g>
</g>
<path d="M257.347 134.911C258.021 135.161 258.534 135.722 258.721 136.421C259.296 138.544 260.308 143.063 258.783 143.999C258.084 144.436 248.538 144.798 247.464 144.361C246.377 143.924 241.104 144.885 241.104 144.885L240.204 138.918L254.41 133.8L257.347 134.911Z" fill="#B78876"/>
<path d="M281.348 153.811H266.555C258.084 153.811 251.187 146.92 251.187 138.456C251.187 129.992 258.084 123.101 266.555 123.101H281.348V129.381H266.555C261.545 129.381 257.472 133.45 257.472 138.456C257.472 143.462 261.545 147.532 266.555 147.532H281.348V153.811Z" fill="#263238"/>
<path d="M240.192 135.548L244.078 134.524C244.078 134.524 245.627 130.23 247.913 129.83C250.2 129.431 259.008 132.127 259.008 132.127C259.008 132.127 258.184 133.762 254.236 133.563L251.787 133.8C251.787 133.8 251.987 135.91 248.8 138.281C248.8 138.281 241.479 140.653 241.141 140.828C240.817 141.003 240.192 135.548 240.192 135.548Z" fill="#B78876"/>
<path d="M258.084 135.435C256.122 135.785 253.773 135.872 252.449 136.372C252.099 136.509 251.762 136.671 251.512 136.946C251.262 137.22 251.137 137.632 251.299 137.969C251.512 138.431 252.099 138.544 252.599 138.569C253.648 138.631 254.71 138.594 255.76 138.456C254.648 138.569 253.511 138.694 252.474 139.118C252.099 139.268 251.724 139.48 251.462 139.792C251.199 140.117 251.087 140.566 251.262 140.941C251.537 141.527 252.311 141.615 252.949 141.602C254.111 141.59 255.273 141.49 256.422 141.315C255.385 141.502 254.361 141.727 253.361 142.002C252.986 142.102 252.574 142.251 252.386 142.601C252.162 143.038 252.461 143.6 252.886 143.837C253.311 144.074 253.836 144.086 254.323 144.074C256.022 144.074 256.797 144.062 258.771 143.999" fill="#B78876"/>
<path d="M249.975 142.426C249.888 142.414 249.963 141.889 249.888 141.053C249.813 140.229 249.513 139.068 248.738 138.019L248.538 137.757L248.813 137.558C249.038 137.395 249.275 137.22 249.5 137.033C250.662 136.047 251.399 134.811 251.549 133.862C251.712 132.901 251.349 132.314 251.462 132.264C251.499 132.215 252.062 132.764 252.012 133.912C251.962 135.048 251.187 136.459 249.925 137.52C249.675 137.732 249.425 137.92 249.175 138.082L249.25 137.62C250.112 138.806 250.35 140.129 250.312 141.016C250.275 141.939 250.038 142.451 249.975 142.426Z" fill="#AA6550"/>
<path d="M259.558 140.828C259.571 141.003 258.309 141.315 256.759 141.515C255.21 141.715 253.923 141.74 253.898 141.565C253.873 141.39 255.123 141.078 256.697 140.878C258.271 140.666 259.546 140.653 259.558 140.828Z" fill="#AA6550"/>
<path d="M259.133 138.094C259.158 138.269 257.846 138.581 256.21 138.781C254.573 138.981 253.236 138.993 253.211 138.818C253.186 138.644 254.498 138.331 256.135 138.132C257.772 137.932 259.108 137.919 259.133 138.094Z" fill="#AA6550"/>
<path d="M167.612 205.281L158.529 442.583L121.62 443.357L127.755 237.739L86.2486 444.93H51.1644L96.3566 205.768L167.612 205.281Z" fill="#263238"/>
<path d="M136.251 213.92C136.339 213.932 136.176 215.431 135.826 217.827C135.476 220.224 134.964 223.545 134.352 227.19C134.027 229.013 133.815 230.773 133.302 232.346C132.803 233.919 131.903 235.217 130.891 235.966C129.904 236.753 128.892 237.065 128.217 237.165C127.53 237.264 127.143 237.177 127.143 237.152C127.093 237.027 128.779 237.177 130.604 235.617C131.503 234.868 132.29 233.669 132.74 232.171C133.202 230.686 133.402 228.913 133.727 227.09C134.339 223.445 134.927 220.137 135.389 217.752C135.839 215.368 136.164 213.908 136.251 213.92Z" fill="#455A64"/>
<path d="M128.58 215.056C128.655 215.119 128.355 215.493 128.53 216.117C128.617 216.417 128.817 216.754 129.142 216.916C129.454 217.078 129.904 216.991 130.241 216.704C130.579 216.404 130.716 215.98 130.604 215.643C130.491 215.293 130.179 215.044 129.891 214.931C129.292 214.682 128.879 214.931 128.829 214.844C128.754 214.806 129.167 214.307 130.029 214.494C130.429 214.594 130.916 214.869 131.153 215.443C131.403 216.017 131.166 216.779 130.666 217.203C130.179 217.653 129.404 217.79 128.854 217.465C128.317 217.153 128.105 216.629 128.067 216.23C127.992 215.318 128.555 214.981 128.58 215.056Z" fill="#455A64"/>
<path d="M108.764 218.439C108.601 218.489 108.064 216.978 108.276 215.056C108.476 213.133 109.326 211.773 109.463 211.848C109.638 211.923 109.101 213.321 108.926 215.118C108.714 216.916 108.938 218.402 108.764 218.439Z" fill="#455A64"/>
<path d="M113.199 218.152C113.037 218.202 112.524 216.642 112.674 214.669C112.812 212.684 113.524 211.224 113.686 211.286C113.861 211.349 113.449 212.834 113.324 214.707C113.174 216.592 113.386 218.115 113.199 218.152Z" fill="#455A64"/>
<path d="M151.332 219.126C151.144 219.076 151.444 217.503 151.544 215.568C151.657 213.62 151.519 212.035 151.707 211.998C151.869 211.96 152.306 213.571 152.194 215.593C152.094 217.628 151.494 219.176 151.332 219.126Z" fill="#455A64"/>
<path d="M156.155 218.864C155.98 218.789 156.554 217.241 156.679 215.243C156.829 213.246 156.48 211.636 156.667 211.586C156.817 211.523 157.492 213.159 157.329 215.293C157.192 217.415 156.305 218.938 156.155 218.864Z" fill="#455A64"/>
<path d="M91.0089 311.43C91.0089 311.43 90.6841 310.306 90.6841 308.109C90.6966 305.912 91.2588 302.679 92.7082 298.784C94.0451 294.864 96.469 290.27 97.2311 284.44C97.5935 281.557 97.2936 278.311 95.7193 275.39C94.9572 273.917 93.9951 272.493 93.0955 270.958C92.2084 269.422 91.3838 267.737 91.1464 265.827C90.8965 263.93 91.2838 261.97 91.9335 260.122C92.5832 258.275 93.4578 256.477 94.245 254.617C95.0321 252.757 95.6943 250.822 95.8568 248.737C96.0567 246.665 95.8942 244.53 95.6568 242.37C95.4319 240.211 95.1321 237.989 95.1321 235.717C95.1071 233.445 95.307 231.135 95.7318 228.826C96.5939 224.219 98.3681 219.65 101.042 215.481C102.379 213.396 103.953 211.423 105.74 209.638C106.652 208.752 107.564 207.865 108.601 207.079C109.626 206.305 110.813 205.618 112.174 205.394C113.524 205.169 114.936 205.469 116.11 206.143C117.297 206.804 118.284 207.766 119.096 208.827C119.908 209.9 120.558 211.099 121.02 212.36C121.52 213.608 121.87 214.919 122.132 216.242C123.144 221.585 122.307 227.215 120.321 232.396C119.346 234.992 117.972 237.527 116.01 239.611C115.036 240.648 113.849 241.534 112.512 242.121C111.175 242.72 109.663 242.945 108.201 242.732C105.215 242.32 102.829 240.198 101.354 237.776C99.8425 235.317 99.3552 232.358 99.5551 229.575C99.73 226.766 100.467 224.082 101.317 221.498C102.191 218.914 103.029 216.354 104.166 213.895C105.302 211.461 106.789 209.126 108.913 207.441C111.012 205.793 113.686 204.745 116.373 205.032C117.697 205.194 118.984 205.681 120.058 206.442C121.133 207.204 122.02 208.19 122.745 209.251C124.169 211.398 124.969 213.845 125.418 216.279C127.293 226.054 124.594 235.879 119.346 242.92C116.772 246.452 113.274 249.336 109.226 250.372C107.227 250.884 105.065 250.747 103.241 249.935C101.392 249.161 99.9424 247.726 98.8929 246.178C96.8063 243.007 96.0567 239.387 95.7443 236.066C95.4444 232.708 95.6693 229.525 96.2316 226.616C96.7938 223.707 97.6684 221.073 98.668 218.751C99.6925 216.429 100.867 214.419 102.041 212.697C104.403 209.251 106.802 207.017 108.501 205.656C109.313 204.919 110.05 204.495 110.488 204.158C110.95 203.833 111.187 203.683 111.187 203.683C111.187 203.683 110.962 203.871 110.525 204.208C110.088 204.57 109.376 205.007 108.576 205.743C106.902 207.141 104.553 209.388 102.241 212.822C101.092 214.544 99.9549 216.542 98.9429 218.851C97.9683 221.173 97.1187 223.782 96.5814 226.666C96.0442 229.55 95.8318 232.708 96.1441 236.016C96.4565 239.299 97.2186 242.845 99.2552 245.903C100.28 247.401 101.667 248.749 103.416 249.486C105.14 250.248 107.177 250.372 109.088 249.873C112.962 248.887 116.373 246.066 118.884 242.595C124.032 235.667 126.668 225.979 124.806 216.392C124.369 214.007 123.569 211.636 122.207 209.588C121.52 208.577 120.683 207.653 119.684 206.942C118.671 206.243 117.497 205.793 116.273 205.643C113.799 205.381 111.275 206.367 109.276 207.928C107.264 209.513 105.815 211.773 104.715 214.157C103.616 216.554 102.766 219.126 101.904 221.685C101.067 224.257 100.355 226.891 100.18 229.612C99.9924 232.321 100.455 235.092 101.892 237.439C103.291 239.736 105.552 241.721 108.276 242.083C111 242.52 113.686 241.134 115.535 239.162C117.422 237.177 118.759 234.718 119.709 232.171C121.658 227.09 122.47 221.56 121.495 216.367C121.245 215.069 120.908 213.808 120.421 212.597C119.971 211.373 119.359 210.237 118.584 209.214C117.809 208.203 116.885 207.304 115.798 206.692C114.723 206.068 113.461 205.818 112.274 206.005C109.838 206.43 107.964 208.377 106.19 210.063C104.428 211.823 102.879 213.758 101.554 215.805C98.9179 219.9 97.1562 224.394 96.2941 228.925C95.8817 231.197 95.6818 233.469 95.6943 235.704C95.6943 237.939 95.9817 240.136 96.2066 242.308C96.4315 244.48 96.5939 246.652 96.3815 248.774C96.2066 250.909 95.5194 252.932 94.7198 254.792C93.9201 256.664 93.0455 258.449 92.3958 260.259C91.7586 262.07 91.3963 263.942 91.6212 265.74C91.8336 267.537 92.6207 269.185 93.4953 270.708C94.3699 272.231 95.3445 273.654 96.1066 275.165C97.7059 278.173 97.9933 281.519 97.6185 284.453C96.7938 290.382 94.3324 294.952 92.9706 298.846C91.4962 302.716 90.8965 305.912 90.8465 308.097C90.8215 309.183 90.884 310.019 90.9465 310.569C90.9839 311.143 91.0089 311.43 91.0089 311.43Z" fill="#455A64"/>
<path d="M112 54.4538C112.124 57.2127 112.512 60.1214 112.999 62.8303C113.074 63.2423 113.136 64.4907 113.236 64.9026C113.799 67.2995 114.786 68.3356 116.223 65.8514C116.772 64.9026 117.122 62.2561 117.335 61.1825C117.909 58.2738 118.484 55.3526 119.059 52.4439C121.32 53.4926 123.769 54.304 126.268 54.1542C128.754 54.0044 131.291 52.7435 132.428 50.5214C133.602 52.4814 135.714 53.8546 137.988 54.1542C140.262 54.4538 142.648 53.6673 144.297 52.0694C145.147 53.4177 147.159 53.7922 148.521 52.9682C149.882 52.1443 150.495 50.3217 150.057 48.7862C149.408 46.4767 146.934 45.2284 144.622 44.5418C135.614 41.8952 125.643 43.9675 117.535 48.7238C116.348 49.4229 115.186 50.1719 114.261 51.1831C113.336 52.1943 112.049 53.3802 112.012 54.7534" fill="#263238"/>
<path d="M115.323 211.174L115.048 101.018C111.3 101.18 107.327 102.029 104.128 102.641C94.0702 104.563 86.8359 111.891 84.8243 118.645L94.495 144.511L94.1077 178.242L94.1326 191.162L89.4722 223.146L115.311 230.648L115.111 211.174H115.323Z" fill="#E8505B"/>
<path d="M199.96 166.957C203.533 166.407 242.553 149.866 242.553 149.866L239.417 130.816L202.709 140.803L162.015 109.507C156.042 104.101 151.782 102.266 142.573 101.18C142.061 101.118 141.586 101.068 141.136 101.018L147.421 211.174H147.446L148.646 231.797L171.698 228.139L168.424 198.241C166.613 179.041 163.851 151.265 163.564 146.833C172.61 152.426 197.074 167.393 199.96 166.957Z" fill="#E8505B"/>
<path d="M199.41 150.029C199.248 150.054 198.998 147.719 199.847 145.01C200.685 142.289 202.209 140.516 202.334 140.628C202.496 140.741 201.259 142.613 200.472 145.21C199.647 147.794 199.61 150.029 199.41 150.029Z" fill="#263238"/>
<path d="M202.684 149.692C202.509 149.717 202.034 147.632 201.984 145.01C201.934 142.376 202.334 140.279 202.509 140.304C202.696 140.329 202.584 142.426 202.634 144.998C202.684 147.582 202.871 149.667 202.684 149.692Z" fill="#263238"/>
<g opacity="0.2">
<path opacity="0.2" d="M233.732 132.364C233.607 132.402 235.381 152.888 235.381 152.888L242.553 149.866L239.417 130.816L233.732 132.364Z" fill="black"/>
</g>
<g opacity="0.2">
<path opacity="0.2" d="M168.012 192.61L154.993 197.454L156.117 207.803C156.779 213.82 162.539 217.915 168.449 216.554L170.748 216.03L168.012 192.61Z" fill="black"/>
</g>
<g opacity="0.2">
<path opacity="0.2" d="M93.6453 194.433L108.226 197.454L107.202 204.857C106.19 212.197 99.3927 217.303 92.0585 216.255L90.4967 216.03L93.6453 194.433Z" fill="black"/>
</g>
<path d="M165.301 166.969C165.126 166.982 163.826 153.736 162.427 137.383C161.015 121.017 160.015 107.747 160.19 107.734C160.365 107.722 161.652 120.967 163.064 137.333C164.476 153.674 165.476 166.944 165.301 166.969Z" fill="#263238"/>
<path d="M142.311 101.355C142.336 101.317 142.836 101.654 143.698 102.316C144.56 102.99 145.809 103.951 147.121 105.425C148.408 106.885 149.77 108.982 150.02 111.666C150.082 112.328 150.057 113.027 149.92 113.714C149.795 114.413 149.533 115.074 149.308 115.724C149.083 116.373 148.908 117.022 148.995 117.671C149.07 118.32 149.37 118.957 149.732 119.581C150.095 120.205 150.52 120.829 150.845 121.503C151.169 122.19 151.357 122.952 151.369 123.688C151.369 125.186 150.795 126.522 150.132 127.645C149.47 128.781 148.67 129.73 147.983 130.629C147.284 131.528 146.659 132.377 146.097 133.176C144.985 134.761 144.21 136.109 143.785 137.096C143.36 138.082 143.323 138.681 143.273 138.681C143.248 138.681 143.248 138.531 143.26 138.232C143.285 137.944 143.385 137.52 143.548 136.996C143.91 135.96 144.647 134.536 145.722 132.901C146.259 132.077 146.871 131.216 147.558 130.292C148.246 129.368 149.008 128.432 149.62 127.333C150.232 126.247 150.745 124.999 150.732 123.676C150.757 122.34 149.97 121.166 149.183 119.881C148.808 119.231 148.458 118.52 148.358 117.721C148.258 116.922 148.483 116.16 148.708 115.499C148.945 114.825 149.195 114.213 149.32 113.589C149.445 112.965 149.47 112.328 149.433 111.704C149.233 109.207 147.996 107.172 146.784 105.724C145.547 104.251 144.347 103.227 143.548 102.503C142.723 101.792 142.286 101.38 142.311 101.355Z" fill="#263238"/>
<path d="M114.598 140.304C114.548 140.316 114.373 139.692 113.961 138.594C113.561 137.495 112.837 135.96 111.775 134.149C111.25 133.226 110.675 132.227 110.063 131.153C109.476 130.067 108.813 128.894 108.339 127.546C107.864 126.21 107.502 124.724 107.589 123.151C107.627 122.365 107.801 121.553 108.151 120.804C108.489 120.043 109.088 119.394 109.588 118.82C110.1 118.233 110.363 117.584 110.275 116.872C110.213 116.173 109.901 115.486 109.513 114.887C108.714 113.676 107.564 112.615 107.114 111.167C106.652 109.756 106.827 108.308 107.239 107.11C107.652 105.899 108.314 104.875 109.026 104.076C110.475 102.466 112.087 101.654 113.224 101.305C113.799 101.118 114.261 101.068 114.573 101.03C114.886 101.018 115.048 101.018 115.048 101.043C115.061 101.105 114.386 101.13 113.299 101.542C112.224 101.954 110.713 102.803 109.376 104.376C108.714 105.162 108.114 106.136 107.751 107.272C107.389 108.408 107.264 109.731 107.689 110.98C108.076 112.241 109.163 113.239 110.05 114.538C110.475 115.199 110.85 115.961 110.925 116.822C111.05 117.683 110.65 118.62 110.088 119.231C109.538 119.868 109.038 120.405 108.739 121.079C108.426 121.741 108.276 122.465 108.226 123.189C108.139 124.637 108.464 126.06 108.901 127.346C109.338 128.644 109.963 129.793 110.538 130.891C111.125 131.965 111.675 132.976 112.174 133.912C113.187 135.76 113.861 137.358 114.199 138.494C114.373 139.056 114.486 139.505 114.536 139.817C114.598 140.129 114.611 140.304 114.598 140.304Z" fill="#263238"/>
<path d="M128.767 101.842C128.704 101.854 128.704 101.555 128.405 101.193C128.117 100.856 127.43 100.469 126.668 100.743C125.893 101.005 125.219 101.817 124.894 102.903C124.519 103.964 124.444 105.35 123.607 106.598L123.382 106.935L123.095 106.623L123.082 106.611C121.283 104.601 119.221 103.228 117.659 102.429C116.085 101.605 115.023 101.28 115.061 101.18C115.073 101.105 116.198 101.28 117.859 102.017C119.521 102.741 121.708 104.101 123.569 106.186L123.582 106.199L123.07 106.224C123.782 105.187 123.907 103.852 124.331 102.703C124.719 101.542 125.556 100.556 126.543 100.306C127.555 100.032 128.342 100.593 128.617 101.043C128.892 101.53 128.792 101.854 128.767 101.842Z" fill="#263238"/>
<path d="M139.737 101.105C139.8 101.143 139.487 101.729 138.875 102.653C138.25 103.565 137.413 104.863 136.151 106.224L135.739 106.66L135.626 106.049C135.489 105.287 135.339 104.463 135.089 103.664C134.752 102.553 134.177 101.605 133.415 101.005C132.665 100.394 131.766 100.194 131.053 100.344C130.329 100.481 129.842 100.881 129.579 101.193C129.317 101.517 129.242 101.754 129.192 101.742C129.154 101.742 129.154 101.467 129.379 101.055C129.604 100.656 130.129 100.132 130.954 99.9068C131.766 99.6572 132.903 99.8444 133.777 100.543C134.677 101.205 135.352 102.304 135.701 103.49C135.976 104.351 136.101 105.2 136.226 105.961L135.701 105.787C136.926 104.538 137.85 103.265 138.55 102.429C139.25 101.567 139.675 101.068 139.737 101.105Z" fill="#263238"/>
<path d="M131.266 211.586C131.241 211.586 131.216 211.199 131.203 210.475C131.191 209.688 131.166 208.614 131.141 207.279C131.103 204.432 131.066 200.425 131.004 195.507C130.904 185.57 130.779 171.838 130.504 156.67C130.229 141.502 129.867 127.77 129.579 117.833C129.442 112.915 129.317 108.907 129.242 106.061C129.217 104.713 129.192 103.652 129.179 102.865C129.167 102.129 129.179 101.754 129.204 101.742C129.229 101.742 129.267 102.129 129.317 102.853C129.367 103.639 129.429 104.7 129.504 106.049C129.642 108.882 129.817 112.89 130.054 117.808C130.466 127.745 130.904 141.477 131.178 156.645C131.453 171.813 131.516 185.545 131.491 195.494C131.453 200.425 131.428 204.432 131.416 207.266C131.391 208.614 131.366 209.676 131.353 210.462C131.316 211.199 131.291 211.586 131.266 211.586Z" fill="#263238"/>
<path d="M281.348 123.101H276.625V129.381H281.348V123.101Z" fill="#455A64"/>
<path d="M281.348 147.532H276.625V153.811H281.348V147.532Z" fill="#455A64"/>
<path d="M121.62 443.357L121.958 432.284H159.253L158.529 442.583L121.62 443.357Z" fill="#455A64"/>
<path d="M51.1644 444.93L52.9636 435.38L88.0103 436.092L86.2486 444.93H51.1644Z" fill="#455A64"/>
<path d="M107.377 191.499L107.676 191.874C108.239 191.999 108.851 192.111 109.526 192.223C110.538 192.398 111.562 192.373 112.562 192.198C113.786 191.986 115.385 191.637 116.21 191.162C117.222 190.588 118.409 191.537 117.984 192.511C117.547 193.472 114.786 195.132 111.037 195.457C107.289 195.781 112.187 199.102 113.949 200.35C115.71 201.599 120.983 205.706 121.02 206.542C121.083 207.778 119.771 208.078 118.047 206.792C116.298 205.494 110.85 202.023 110.238 202.984C109.638 203.933 118.684 210.15 118.684 210.15C118.684 210.15 120.833 211.161 120.158 212.297C118.946 214.344 109.813 207.029 108.951 206.305C108.364 205.806 107.651 206.829 108.314 207.329C109.001 207.84 117.485 213.321 116.273 215.418C115.348 217.028 108.701 209.476 106.302 209.314C103.903 209.151 111.925 214.532 110.975 216.03C110.625 216.592 110.275 216.954 106.127 213.208C103.791 211.099 99.7925 206.467 96.6439 202.71L107.377 191.499Z" fill="#B78876"/>
<path d="M87.3481 113.452C87.3481 113.452 72.105 137.807 60.7476 155.609C55.6124 163.661 58.0863 174.359 66.2326 179.34L96.6065 204.707L109.501 190.888L84.4369 162.949L100.842 140.304L87.3481 113.452Z" fill="#E8505B"/>
<path d="M96.6064 204.72C96.5814 204.695 96.8813 204.333 97.4685 203.671C98.1057 202.959 98.9679 201.998 100.03 200.812C102.316 198.315 105.49 194.857 109.301 190.7V191.075C105.29 186.506 100.53 181.088 95.4195 175.271C91.5962 170.889 87.9728 166.732 84.7243 162.999L84.5743 162.824L84.7118 162.637C88.6975 156.907 92.2459 152.163 94.8072 148.868C96.0817 147.22 97.1187 145.934 97.8309 145.06C98.1682 144.661 98.4306 144.336 98.6555 144.074C98.8429 143.849 98.9554 143.749 98.9679 143.749C98.9803 143.749 98.9054 143.887 98.7305 144.124C98.5305 144.411 98.2807 144.748 97.9808 145.173C97.2686 146.146 96.2941 147.457 95.0946 149.08C92.6207 152.438 89.1473 157.207 85.1991 162.962L85.1741 162.6C88.4476 166.32 92.0835 170.477 95.9192 174.834C100.992 180.664 105.727 186.106 109.726 190.7L109.888 190.888L109.713 191.062C105.84 195.145 102.604 198.553 100.28 201.012C99.1678 202.16 98.2807 203.072 97.606 203.758C96.9688 204.407 96.6314 204.732 96.6064 204.72Z" fill="#263238"/>
<path d="M343.37 127.72C343.333 127.795 342.708 127.134 341.246 126.921C339.784 126.684 337.635 127.134 335.286 128.394C334.087 128.981 332.788 129.705 331.226 130.155C330.451 130.392 329.602 130.467 328.727 130.454C327.865 130.392 326.978 130.23 326.116 129.942C324.391 129.368 322.755 128.457 321.03 127.645C319.319 126.859 317.432 126.135 315.47 126.335C313.509 126.497 311.722 127.433 310.048 128.332C308.361 129.243 306.737 130.205 304.975 130.704C303.238 131.253 301.364 131.116 299.877 130.492C298.378 129.893 297.141 129.069 295.979 128.444C293.693 127.096 291.406 127.009 290.044 127.533C288.657 128.07 288.345 128.981 288.283 128.906C288.27 128.906 288.333 128.694 288.57 128.37C288.795 128.045 289.245 127.596 289.957 127.296C291.356 126.647 293.805 126.684 296.192 128.032C297.391 128.644 298.64 129.431 300.077 129.98C301.502 130.542 303.176 130.642 304.813 130.117C306.462 129.63 308.061 128.682 309.748 127.758C311.435 126.846 313.284 125.848 315.42 125.673C317.569 125.461 319.569 126.247 321.318 127.059C323.067 127.895 324.691 128.794 326.328 129.356C327.965 129.917 329.627 130.055 331.101 129.618C332.588 129.231 333.887 128.532 335.099 127.97C337.498 126.747 339.797 126.335 341.296 126.672C342.046 126.809 342.596 127.096 342.921 127.321C343.233 127.546 343.37 127.708 343.37 127.72Z" fill="#263238"/>
<path d="M344.295 136.521C344.258 136.596 343.633 135.935 342.171 135.722C340.709 135.485 338.56 135.935 336.211 137.196C335.012 137.782 333.712 138.506 332.15 138.956C331.376 139.193 330.526 139.268 329.652 139.255C328.789 139.193 327.902 139.031 327.04 138.744C325.316 138.169 323.679 137.258 321.955 136.446C320.243 135.66 318.357 134.936 316.395 135.136C314.433 135.298 312.647 136.234 310.973 137.133C309.286 138.044 307.662 139.006 305.9 139.505C304.163 140.054 302.289 139.917 300.802 139.293C299.303 138.694 298.066 137.87 296.904 137.245C294.617 135.897 292.331 135.81 290.969 136.334C289.582 136.871 289.27 137.782 289.207 137.707C289.195 137.707 289.257 137.495 289.495 137.171C289.72 136.846 290.169 136.397 290.882 136.097C292.281 135.448 294.73 135.485 297.116 136.833C298.316 137.445 299.565 138.232 301.002 138.781C302.426 139.343 304.101 139.443 305.737 138.918C307.387 138.431 308.986 137.483 310.673 136.559C312.359 135.648 314.209 134.649 316.345 134.474C318.494 134.262 320.493 135.048 322.242 135.86C323.992 136.696 325.616 137.607 327.253 138.157C328.889 138.719 330.551 138.856 332.026 138.419C333.512 138.032 334.812 137.333 336.024 136.771C338.423 135.548 340.722 135.136 342.221 135.473C342.971 135.61 343.52 135.897 343.845 136.122C344.158 136.347 344.307 136.509 344.295 136.521Z" fill="#263238"/>
<path d="M343.87 145.684C343.833 145.759 343.208 145.098 341.746 144.885C340.284 144.648 338.135 145.098 335.786 146.358C334.587 146.945 333.287 147.669 331.726 148.119C330.951 148.356 330.101 148.431 329.227 148.418C328.365 148.356 327.478 148.194 326.615 147.906C324.891 147.332 323.254 146.421 321.53 145.609C319.819 144.823 317.932 144.099 315.97 144.299C314.009 144.461 312.222 145.397 310.548 146.296C308.861 147.207 307.237 148.169 305.475 148.668C303.738 149.217 301.864 149.08 300.377 148.456C298.878 147.856 297.641 147.033 296.479 146.408C294.193 145.06 291.906 144.973 290.544 145.497C289.157 146.034 288.845 146.945 288.783 146.87C288.77 146.87 288.832 146.658 289.07 146.333C289.295 146.009 289.745 145.56 290.457 145.26C291.856 144.611 294.305 144.648 296.691 145.996C297.891 146.608 299.14 147.395 300.577 147.944C302.002 148.506 303.676 148.606 305.313 148.081C306.962 147.594 308.561 146.646 310.248 145.722C311.935 144.81 313.784 143.812 315.92 143.637C318.069 143.425 320.068 144.211 321.818 145.023C323.567 145.859 325.191 146.77 326.828 147.32C328.465 147.881 330.126 148.019 331.601 147.582C333.088 147.195 334.387 146.496 335.599 145.934C337.998 144.711 340.297 144.299 341.796 144.636C342.558 144.773 343.096 145.06 343.42 145.285C343.733 145.51 343.883 145.672 343.87 145.684Z" fill="#263238"/>
<path d="M256.734 362.201C261.782 359.604 267.717 359.267 273.315 360.191C276.326 360.69 279.462 361.589 281.511 363.849C283.56 366.108 283.947 370.078 281.598 372.026C280.199 373.174 278.25 373.361 276.438 373.336C272.053 373.287 267.192 372.513 263.694 375.147C261.695 376.645 260.37 379.154 257.971 379.89C255.635 380.614 252.999 379.241 251.762 377.131C250.525 375.022 250.487 372.388 251.062 370.016C251.037 370.003 251.649 364.823 256.734 362.201Z" fill="#E8505B"/>
<path d="M245.177 339.918C248.263 344.324 254.261 342.864 257.034 340.18C259.808 337.496 260.983 333.601 262.057 329.893C264.506 321.404 266.967 312.516 265.143 303.877C264.606 301.293 263.631 298.722 261.82 296.799C260.008 294.889 257.209 293.741 254.66 294.415C251.637 295.214 249.763 298.172 248.401 300.981C244.415 309.245 242.291 318.421 242.266 327.596C242.253 331.878 242.753 336.372 245.177 339.918Z" fill="#E8505B"/>
<path d="M236.706 346.234C240.054 342.265 240.692 336.472 239.205 331.504C237.718 326.535 234.345 322.303 230.471 318.845C225.923 314.801 220.576 311.642 214.828 309.62C212.567 308.821 210.18 308.197 207.794 308.421C205.408 308.646 203.009 309.87 201.884 311.992C200.235 315.125 201.822 318.933 203.521 322.041C206.532 327.509 209.968 332.74 213.791 337.671C216.865 341.64 220.401 345.548 225.086 347.345C229.784 349.143 234.657 348.931 237.143 345.673" fill="#E8505B"/>
<path d="M244.965 406.306C245.027 406.306 245.115 405.594 245.24 404.309C245.377 402.848 245.565 401.025 245.777 398.853C246.027 396.556 246.364 393.822 247.001 390.851C247.639 387.88 248.638 384.659 249.913 381.401C251.237 378.155 252.849 375.209 254.735 372.85C256.61 370.478 258.796 368.768 260.845 367.781C262.882 366.77 264.718 366.358 265.98 366.183C267.255 366.059 267.967 365.946 267.979 365.896C267.979 365.834 267.267 365.834 265.955 365.859C264.656 365.946 262.744 366.271 260.595 367.257C258.434 368.218 256.122 369.954 254.161 372.375C252.174 374.785 250.5 377.793 249.15 381.101C247.851 384.422 246.864 387.668 246.264 390.701C245.652 393.735 245.377 396.494 245.202 398.803C245.027 401.125 244.965 402.998 244.927 404.296C244.902 405.582 244.915 406.306 244.965 406.306Z" fill="#263238"/>
<path d="M245.34 402.111C245.365 402.111 245.39 401.787 245.39 401.188C245.39 400.488 245.39 399.615 245.377 398.528C245.365 396.231 245.377 392.898 245.49 388.779C245.689 380.552 246.402 371.689 247.776 359.205C249.075 347.458 250.812 333.801 252.649 324.912C253.049 322.89 253.436 321.067 253.811 319.482C254.173 317.884 254.473 316.511 254.76 315.4C255.01 314.351 255.223 313.502 255.385 312.816C255.523 312.229 255.573 311.904 255.548 311.904C255.523 311.892 255.41 312.191 255.223 312.778C255.023 313.44 254.76 314.289 254.448 315.325C254.111 316.423 253.761 317.797 253.361 319.382C252.949 320.967 252.511 322.778 252.074 324.8C250.25 332.852 248.326 344.1 246.951 356.621C245.577 369.129 244.965 380.527 244.902 388.779C244.852 392.898 244.94 396.244 245.052 398.553C245.115 399.627 245.177 400.513 245.215 401.2C245.277 401.787 245.315 402.111 245.34 402.111Z" fill="#263238"/>
<path d="M245.402 380.128C245.465 380.128 245.452 379.141 245.377 377.356C245.277 375.571 245.027 372.999 244.528 369.841C243.99 366.695 243.253 362.963 242.079 358.893C241.566 357.033 240.379 352.589 237.493 345.947C233.695 336.947 228.535 329.581 224.049 325.025C223 323.814 221.825 322.94 220.888 322.091C220.401 321.679 219.976 321.267 219.539 320.943C219.101 320.643 218.689 320.356 218.314 320.094C216.84 319.082 216.015 318.546 215.978 318.596C215.84 318.77 219.289 320.805 223.637 325.424C227.96 330.031 232.983 337.346 236.743 346.272C238.843 351.116 240.304 355.435 241.354 359.105C242.553 363.125 243.353 366.82 243.953 369.941C244.528 373.062 244.852 375.609 245.052 377.381C245.227 379.154 245.34 380.128 245.402 380.128Z" fill="#263238"/>
<path d="M222.662 415.556L224.874 445.729H263.669L265.868 415.556H222.662Z" fill="#263238"/>
<path d="M270.503 403.659H218.927V415.556H270.503V403.659Z" fill="#263238"/>
<path d="M218.927 444.568V447.864H221.338H269.641V444.568H218.927Z" fill="#455A64"/>
<path d="M223.724 453.669L221.338 447.864H267.792L265.018 453.669H223.724Z" fill="#455A64"/>
<path d="M265.143 425.418C265.156 425.431 265.093 425.518 264.968 425.693C264.818 425.893 264.618 426.155 264.394 426.467C263.844 427.166 263.082 428.14 262.132 429.351L262.032 429.475L261.932 429.338C260.508 427.378 258.609 424.757 256.385 421.661H256.71C255.06 423.995 253.224 426.604 251.249 429.388L251.075 429.625L250.887 429.401C248.876 427.004 246.677 424.395 244.403 421.698H244.777C244.665 421.835 244.54 421.998 244.415 422.148C242.403 424.669 240.454 427.104 238.618 429.413L238.43 429.65L238.255 429.401C236.294 426.617 234.445 424.02 232.783 421.673L233.095 421.686C230.396 424.757 228.11 427.353 226.361 429.351L226.236 429.488L226.148 429.338C225.261 427.853 224.549 426.654 224.037 425.793C223.812 425.406 223.637 425.094 223.499 424.844C223.375 424.632 223.325 424.519 223.337 424.507C223.35 424.494 223.425 424.607 223.562 424.807C223.724 425.044 223.912 425.343 224.162 425.718C224.699 426.567 225.449 427.728 226.373 429.188H226.148C227.873 427.166 230.122 424.532 232.77 421.424L232.933 421.224L233.083 421.436C234.757 423.77 236.619 426.367 238.605 429.126L238.23 429.113C240.067 426.804 242.004 424.37 244.015 421.848C244.14 421.698 244.265 421.536 244.378 421.399L244.565 421.161L244.752 421.386C247.026 424.095 249.2 426.704 251.212 429.101L250.85 429.113C252.849 426.33 254.698 423.745 256.372 421.424L256.535 421.199L256.697 421.424C258.884 424.544 260.745 427.191 262.132 429.176H261.932C262.919 427.99 263.706 427.041 264.281 426.355C264.531 426.055 264.743 425.818 264.906 425.631C265.056 425.493 265.143 425.406 265.143 425.418Z" fill="#E0E0E0"/>
<path d="M266.405 415.356C266.405 415.494 256.684 415.594 244.702 415.594C232.708 415.594 222.987 415.481 222.987 415.356C222.987 415.219 232.708 415.119 244.702 415.119C256.684 415.119 266.405 415.219 266.405 415.356Z" fill="#455A64"/>
<path d="M268.367 448.188C268.367 448.326 257.809 448.426 244.777 448.426C231.746 448.426 221.188 448.313 221.188 448.188C221.188 448.051 231.746 447.951 244.777 447.951C257.797 447.951 268.367 448.064 268.367 448.188Z" fill="#263238"/>
<g opacity="0.2">
<path opacity="0.2" d="M256.734 362.201C261.782 359.604 267.717 359.267 273.315 360.191C276.326 360.69 279.462 361.589 281.511 363.849C283.56 366.108 283.947 370.078 281.598 372.026C280.199 373.174 278.25 373.361 276.438 373.336C272.053 373.287 267.192 372.513 263.694 375.147C261.695 376.645 260.37 379.154 257.971 379.89C255.635 380.614 252.999 379.241 251.762 377.131C250.525 375.022 250.487 372.388 251.062 370.016C251.037 370.003 251.649 364.823 256.734 362.201Z" fill="black"/>
</g>
<path d="M541.519 128.307C540.094 132.689 537.633 134.736 534.972 133.875C533.297 133.338 532.498 131.94 532.973 130.117C531.361 131.565 529.174 131.99 526.9 131.253C523.239 130.067 521.403 126.397 522.665 122.502C523.914 118.632 527.55 116.76 531.211 117.946C533.435 118.67 534.947 120.243 535.434 122.315L536.284 119.706L537.958 120.255L534.784 130.03C534.309 131.478 534.872 132.227 535.746 132.502C537.346 133.026 539.02 131.365 540.157 127.883C542.118 121.828 539.07 116.385 532.823 114.363C526.5 112.315 520.815 115.149 518.829 121.254C516.842 127.371 519.716 133.026 525.988 135.061C527.537 135.56 529.562 135.822 531.311 135.535L531.336 136.946C529.524 137.245 527.288 136.946 525.563 136.384C518.467 134.087 515.193 127.645 517.417 120.804C519.641 113.951 526.126 110.742 533.247 113.052C540.257 115.336 543.718 121.553 541.519 128.307ZM534.209 126.247C535.221 123.126 533.76 120.43 530.973 119.531C528.112 118.607 525.388 119.968 524.376 123.064C523.377 126.16 524.764 128.919 527.625 129.842C530.399 130.754 533.185 129.393 534.209 126.247Z" fill="#E8505B"/>
<path d="M388.413 142.863C388.688 146.446 387.526 148.643 385.352 148.818C383.977 148.918 382.99 148.156 382.79 146.708C382.065 148.218 380.604 149.18 378.755 149.329C375.768 149.567 373.357 147.457 373.107 144.286C372.857 141.128 374.919 138.706 377.917 138.469C379.729 138.331 381.291 139.018 382.265 140.354L382.103 138.232L383.477 138.132L384.09 146.109C384.177 147.282 384.802 147.657 385.514 147.607C386.826 147.507 387.538 145.822 387.313 142.975C386.926 138.032 383.115 135.023 378.017 135.41C372.857 135.81 369.609 139.53 369.996 144.523C370.383 149.517 374.132 152.738 379.242 152.338C380.504 152.238 382.04 151.826 383.215 151.102L383.652 152.101C382.44 152.85 380.741 153.299 379.329 153.412C373.532 153.861 369.271 150.191 368.834 144.611C368.397 139.005 372.12 134.786 377.93 134.337C383.652 133.887 387.988 137.345 388.413 142.863ZM382.528 143.55C382.328 141.003 380.479 139.492 378.205 139.667C375.868 139.842 374.306 141.64 374.506 144.161C374.706 146.683 376.518 148.256 378.854 148.081C381.128 147.906 382.728 146.109 382.528 143.55Z" fill="#263238"/>
<path d="M527.962 305.163C526.363 309.033 523.989 310.731 521.64 309.757C520.153 309.145 519.529 307.822 520.091 306.212C518.529 307.41 516.505 307.647 514.506 306.823C511.27 305.488 509.87 302.03 511.282 298.597C512.694 295.176 516.118 293.728 519.354 295.064C521.315 295.875 522.577 297.398 522.89 299.321L523.839 297.024L525.326 297.635L521.765 306.274C521.24 307.547 521.69 308.272 522.465 308.584C523.877 309.17 525.513 307.785 526.788 304.714C528.999 299.358 526.6 294.215 521.09 291.943C515.505 289.646 510.145 291.818 507.921 297.211C505.697 302.616 507.896 307.947 513.444 310.219C514.818 310.781 516.63 311.155 518.242 311.018L518.167 312.291C516.505 312.441 514.493 312.004 512.969 311.38C506.697 308.796 504.185 302.729 506.672 296.687C509.171 290.62 515.268 288.173 521.565 290.769C527.725 293.316 530.424 299.196 527.962 305.163ZM521.465 302.791C522.602 300.032 521.465 297.486 519.004 296.474C516.467 295.438 513.906 296.487 512.782 299.221C511.657 301.955 512.719 304.551 515.256 305.6C517.704 306.599 520.328 305.575 521.465 302.791Z" fill="#E8505B"/>
<path d="M636.401 240.385C634.802 244.255 632.428 245.953 630.079 244.979C628.592 244.368 627.967 243.044 628.529 241.434C626.968 242.632 624.943 242.87 622.944 242.046C619.708 240.71 618.309 237.252 619.721 233.819C621.133 230.398 624.556 228.95 627.792 230.286C629.754 231.098 631.016 232.621 631.328 234.543L632.278 232.246L633.765 232.858L630.204 241.496C629.679 242.77 630.129 243.494 630.903 243.806C632.315 244.393 633.952 243.007 635.226 239.936C637.438 234.58 635.039 229.437 629.529 227.165C623.944 224.868 618.584 227.04 616.36 232.433C614.136 237.839 616.335 243.169 621.882 245.441C623.257 246.003 625.068 246.378 626.68 246.24L626.605 247.514C624.944 247.663 622.932 247.226 621.408 246.602C615.135 244.018 612.624 237.951 615.11 231.909C617.609 225.842 623.707 223.395 630.004 225.992C636.163 228.526 638.862 234.406 636.401 240.385ZM629.916 238.001C631.053 235.242 629.916 232.695 627.455 231.684C624.919 230.648 622.357 231.697 621.233 234.431C620.108 237.165 621.17 239.761 623.707 240.81C626.155 241.821 628.767 240.785 629.916 238.001Z" fill="#455A64"/>
<path d="M500.687 66.5129C498.913 70.8073 496.277 72.6798 493.678 71.6062C492.028 70.9321 491.341 69.459 491.953 67.6739C490.229 68.9971 487.98 69.2593 485.756 68.348C482.158 66.8749 480.609 63.0424 482.183 59.2224C483.745 55.4274 487.543 53.8295 491.129 55.3025C493.303 56.2014 494.702 57.8992 495.04 60.0214L496.089 57.4747L497.738 58.1488L493.79 67.7238C493.203 69.1344 493.703 69.9334 494.565 70.2954C496.127 70.9446 497.951 69.4091 499.35 66.001C501.799 60.0588 499.15 54.3538 493.028 51.8446C486.831 49.2979 480.896 51.7073 478.422 57.6994C475.948 63.6916 478.397 69.6088 484.544 72.1305C486.069 72.7547 488.08 73.1667 489.854 73.0169L489.779 74.4275C487.943 74.5898 485.706 74.1154 484.007 73.4163C477.048 70.5576 474.262 63.8164 477.023 57.1252C479.797 50.3965 486.568 47.6875 493.54 50.5588C500.425 53.3676 503.411 59.8965 500.687 66.5129ZM493.49 63.8788C494.752 60.8203 493.49 57.999 490.754 56.8755C487.943 55.7145 485.094 56.888 483.845 59.9215C482.595 62.955 483.782 65.8388 486.581 66.9873C489.317 68.1108 492.216 66.9623 493.49 63.8788Z" fill="#263238"/>
<path d="M429.132 200.151C430.531 203.783 430.019 206.442 427.807 207.291C426.421 207.828 425.146 207.329 424.484 205.893C424.197 207.703 422.985 209.151 421.11 209.875C418.074 211.049 414.913 209.613 413.664 206.38C412.427 203.172 413.814 200.013 416.85 198.84C418.687 198.128 420.523 198.353 421.948 199.451L421.11 197.292L422.497 196.755L425.621 204.857C426.083 206.055 426.845 206.255 427.57 205.968C428.894 205.456 429.119 203.484 428.007 200.587C426.071 195.557 421.16 193.622 415.988 195.619C410.74 197.641 408.529 202.522 410.49 207.591C412.452 212.659 417.35 214.844 422.547 212.834C423.834 212.335 425.296 211.436 426.296 210.312L427.07 211.224C426.046 212.385 424.409 213.383 422.972 213.933C417.087 216.205 411.502 213.708 409.316 208.053C407.117 202.373 409.666 196.817 415.575 194.533C421.385 192.311 426.97 194.545 429.132 200.151ZM423.234 202.697C422.235 200.113 419.836 199.114 417.525 200.013C415.151 200.925 414.089 203.284 415.076 205.843C416.063 208.402 418.449 209.476 420.823 208.565C423.135 207.666 424.234 205.306 423.234 202.697Z" fill="#E8505B"/>
<path d="M448.319 245.674L408.381 262.564L419.773 289.454L459.71 272.563L448.319 245.674Z" fill="#263238"/>
<path d="M459.718 272.543C459.718 272.543 459.631 272.368 459.493 272.056C459.343 271.719 459.143 271.245 458.868 270.633C458.319 269.372 457.531 267.55 456.532 265.228C454.533 260.559 451.659 253.868 448.173 245.716L448.398 245.803C437.378 250.472 423.509 256.364 408.491 262.731C408.466 262.794 408.704 262.207 408.604 262.456V262.469V262.481L408.616 262.506L408.641 262.556L408.691 262.669L408.791 262.893L408.978 263.343L409.353 264.242C409.603 264.841 409.853 265.428 410.103 266.027C410.603 267.213 411.102 268.386 411.59 269.547C412.577 271.882 413.551 274.179 414.501 276.426C416.4 280.932 418.237 285.252 419.961 289.359L419.711 289.259C431.456 284.328 441.426 280.146 448.486 277.187C452.009 275.727 454.808 274.553 456.732 273.754C457.681 273.367 458.419 273.055 458.943 272.843C459.181 272.743 459.368 272.668 459.518 272.618C459.643 272.568 459.705 272.543 459.718 272.543C459.718 272.543 459.668 272.568 459.543 272.631C459.406 272.693 459.231 272.768 458.993 272.868C458.481 273.093 457.769 273.405 456.844 273.804C454.933 274.628 452.159 275.814 448.673 277.312C441.614 280.321 431.631 284.59 419.861 289.608L419.686 289.683L419.611 289.509C417.874 285.414 416.038 281.082 414.126 276.588C413.177 274.341 412.202 272.044 411.215 269.709C410.715 268.548 410.228 267.375 409.716 266.189C409.466 265.602 409.216 265.003 408.966 264.404L408.591 263.505L408.404 263.056L408.304 262.831L408.254 262.719L408.229 262.669L408.216 262.644V262.631V262.619C408.116 262.868 408.354 262.282 408.329 262.332C423.372 255.99 437.241 250.135 448.273 245.479L448.436 245.416L448.498 245.579C451.934 253.793 454.758 260.546 456.732 265.253C457.694 267.575 458.456 269.397 458.968 270.658C459.218 271.257 459.406 271.732 459.543 272.069C459.655 272.381 459.718 272.543 459.718 272.543Z" fill="#263238"/>
<path d="M448.323 245.653C448.336 245.653 448.273 245.841 448.136 246.165C447.986 246.527 447.773 247.014 447.524 247.601C446.961 248.887 446.162 250.672 445.2 252.869C443.175 257.351 440.414 263.48 437.328 270.321L437.253 270.483L437.078 270.434C436.666 270.321 436.216 270.196 435.766 270.084C428.22 268.037 421.385 266.189 416.388 264.841C413.951 264.154 411.965 263.605 410.528 263.206C409.865 263.018 409.341 262.856 408.941 262.744C408.579 262.631 408.391 262.569 408.391 262.556C408.391 262.544 408.591 262.581 408.953 262.669C409.366 262.769 409.89 262.893 410.565 263.056C412.002 263.418 414.001 263.93 416.463 264.566C421.473 265.889 428.307 267.7 435.866 269.697C436.316 269.822 436.766 269.934 437.178 270.047L436.928 270.159C440.064 263.343 442.876 257.226 444.925 252.757C445.949 250.585 446.774 248.812 447.374 247.551C447.661 246.977 447.886 246.502 448.061 246.153C448.211 245.816 448.311 245.641 448.323 245.653Z" fill="#455A64"/>
<path d="M419.911 289.633C419.736 289.584 421.123 284.528 422.997 278.348C424.871 272.169 426.533 267.2 426.708 267.25C426.883 267.3 425.496 272.356 423.622 278.535C421.735 284.715 420.086 289.683 419.911 289.633Z" fill="#455A64"/>
<path d="M459.718 272.543C459.681 272.618 458.581 272.144 456.832 271.32C455.095 270.496 452.709 269.31 450.085 267.962C447.474 266.614 445.112 265.365 443.413 264.429C441.714 263.493 440.677 262.868 440.714 262.781C440.739 262.694 441.826 263.168 443.575 263.992C445.312 264.816 447.711 266.014 450.335 267.363C452.959 268.711 455.333 269.972 457.019 270.908C458.731 271.844 459.756 272.468 459.718 272.543Z" fill="#455A64"/>
<path d="M587.588 112.684L586.939 160.729L658.274 161.691L658.924 113.647L587.588 112.684Z" fill="#E8505B"/>
<path d="M658.916 113.639C658.928 113.651 658.716 113.876 658.291 114.288C657.816 114.737 657.192 115.324 656.417 116.048C654.705 117.609 652.344 119.781 649.433 122.44C643.423 127.845 635.189 135.261 626.018 143.525L625.793 143.724L625.568 143.537C625.019 143.088 624.419 142.613 623.819 142.139C613.799 134.075 604.74 126.772 598.106 121.429C594.882 118.795 592.258 116.635 590.359 115.087C589.497 114.363 588.81 113.776 588.273 113.339C587.798 112.927 587.56 112.715 587.573 112.69C587.585 112.678 587.86 112.852 588.36 113.227C588.91 113.651 589.635 114.188 590.522 114.875C592.446 116.385 595.12 118.47 598.406 121.042C605.078 126.347 614.186 133.588 624.244 141.602C624.844 142.077 625.443 142.564 625.993 143L625.543 143.013C634.777 134.811 643.061 127.458 649.108 122.09C652.082 119.494 654.505 117.384 656.242 115.861C657.054 115.174 657.704 114.625 658.204 114.201C658.654 113.814 658.903 113.626 658.916 113.639Z" fill="#263238"/>
<path d="M586.936 160.727C586.798 160.602 592.421 154.136 599.48 146.271C606.539 138.406 612.374 132.14 612.512 132.252C612.649 132.377 607.027 138.843 599.967 146.708C592.896 154.56 587.061 160.839 586.936 160.727Z" fill="#263238"/>
<path d="M658.266 161.688C658.229 161.713 657.904 161.364 657.329 160.69C656.767 160.015 655.955 159.042 654.98 157.818C653.018 155.372 650.345 151.976 647.421 148.193C644.497 144.411 641.873 140.965 639.999 138.444C639.137 137.258 638.4 136.259 637.8 135.435C637.288 134.711 637.026 134.299 637.051 134.262C637.076 134.224 637.4 134.586 637.975 135.248C638.625 136.034 639.4 136.996 640.324 138.119C642.286 140.566 644.972 143.974 647.908 147.757C650.844 151.552 653.468 155.01 655.342 157.531C656.279 158.792 657.029 159.816 657.541 160.54C658.041 161.251 658.304 161.651 658.266 161.688Z" fill="#263238"/>
<path d="M490.374 180.037L486.614 228.739L558.926 234.311L562.686 185.609L490.374 180.037Z" fill="#455A64"/>
<path d="M562.697 185.582C562.709 185.595 562.484 185.807 562.022 186.194C561.51 186.618 560.835 187.168 560.01 187.854C558.174 189.327 555.637 191.375 552.501 193.896C546.054 199.002 537.221 205.98 527.375 213.77L527.138 213.958L526.913 213.758C526.376 213.271 525.801 212.747 525.226 212.222C515.58 203.396 506.859 195.394 500.475 189.552C497.376 186.668 494.852 184.309 493.028 182.624C492.203 181.837 491.541 181.2 491.029 180.714C490.579 180.277 490.342 180.027 490.367 180.014C490.379 180.002 490.642 180.202 491.129 180.614C491.666 181.076 492.353 181.675 493.215 182.424C495.065 184.072 497.651 186.369 500.812 189.19C507.234 194.995 516.005 202.934 525.701 211.71C526.276 212.235 526.85 212.759 527.388 213.246L526.925 213.233C536.821 205.519 545.704 198.59 552.176 193.534C555.363 191.087 557.949 189.103 559.823 187.667C560.685 187.018 561.385 186.506 561.91 186.106C562.422 185.744 562.684 185.57 562.697 185.582Z" fill="#263238"/>
<path d="M486.668 229.1C486.543 228.975 492.541 222.596 500.087 214.856C507.621 207.116 513.844 200.937 513.969 201.062C514.093 201.187 508.096 207.566 500.55 215.306C493.016 223.058 486.793 229.225 486.668 229.1Z" fill="#263238"/>
<path d="M558.936 234.281C558.898 234.306 558.574 233.919 558.024 233.207C557.399 232.371 556.625 231.36 555.725 230.149C553.801 227.552 551.189 223.944 548.341 219.937C545.48 215.93 542.931 212.272 541.094 209.601C540.257 208.352 539.532 207.279 538.957 206.417C538.458 205.656 538.208 205.219 538.233 205.181C538.27 205.144 538.583 205.531 539.132 206.243C539.757 207.079 540.532 208.09 541.431 209.289C543.355 211.885 545.967 215.493 548.84 219.525C551.702 223.545 554.263 227.203 556.1 229.874C556.937 231.122 557.649 232.184 558.236 233.057C558.711 233.831 558.973 234.256 558.936 234.281Z" fill="#263238"/>
<path d="M483.12 143.737C483.12 143.737 483.07 143.5 482.995 143.063C482.92 142.601 482.82 141.952 482.695 141.128C482.433 139.418 482.058 136.933 481.583 133.775C480.646 127.421 479.297 118.32 477.66 107.235L477.897 107.422C462.917 109.582 444.075 112.303 423.659 115.249C423.609 115.312 424.084 114.675 423.884 114.95V114.962V114.987V115.024L423.897 115.099L423.922 115.249L423.972 115.549L424.059 116.16L424.234 117.371C424.346 118.183 424.471 118.982 424.584 119.793C424.809 121.404 425.046 123.002 425.271 124.574C425.721 127.745 426.171 130.854 426.608 133.912C427.483 140.029 428.32 145.909 429.119 151.477L428.844 151.265C444.787 149.03 458.331 147.132 467.902 145.784C472.675 145.123 476.473 144.611 479.097 144.249C480.384 144.074 481.383 143.949 482.083 143.849C482.408 143.812 482.67 143.774 482.858 143.749C483.02 143.749 483.107 143.737 483.12 143.737C483.12 143.737 483.045 143.762 482.883 143.787C482.695 143.812 482.445 143.862 482.133 143.912C481.446 144.012 480.459 144.174 479.197 144.361C476.598 144.748 472.825 145.31 468.077 146.021C458.469 147.432 444.9 149.417 428.894 151.764L428.657 151.801L428.62 151.564C427.82 145.996 426.97 140.117 426.083 134.012C425.646 130.954 425.196 127.833 424.734 124.674C424.509 123.089 424.271 121.491 424.047 119.893C423.934 119.094 423.809 118.283 423.697 117.471L423.522 116.26L423.434 115.649L423.384 115.349L423.359 115.199L423.347 115.124V115.087V115.062V115.049C423.147 115.312 423.622 114.675 423.572 114.737C444 111.829 462.842 109.145 477.822 107.01L478.035 106.985L478.06 107.197C479.609 118.345 480.883 127.496 481.783 133.9C482.208 137.046 482.545 139.517 482.783 141.228C482.895 142.039 482.97 142.676 483.033 143.138C483.107 143.537 483.12 143.737 483.12 143.737Z" fill="#263238"/>
<path d="M477.872 107.21C477.885 107.222 477.747 107.409 477.472 107.771C477.16 108.171 476.76 108.683 476.261 109.332C475.149 110.718 473.612 112.652 471.725 115.012C467.814 119.831 462.442 126.434 456.469 133.8L456.332 133.975L456.132 133.862C455.657 133.588 455.145 133.3 454.633 133.013C446.074 128.082 438.315 123.626 432.643 120.355C429.881 118.732 427.632 117.421 426.008 116.472C425.271 116.023 424.671 115.661 424.221 115.386C423.809 115.137 423.609 114.999 423.609 114.974C423.622 114.962 423.847 115.062 424.271 115.287C424.734 115.536 425.346 115.873 426.108 116.285C427.745 117.197 430.031 118.47 432.83 120.03C438.528 123.264 446.299 127.67 454.895 132.551C455.407 132.839 455.92 133.138 456.394 133.4L456.057 133.463C462.079 126.147 467.489 119.568 471.438 114.775C473.387 112.453 474.974 110.555 476.111 109.195C476.648 108.57 477.073 108.083 477.398 107.696C477.697 107.372 477.86 107.197 477.872 107.21Z" fill="#263238"/>
<path d="M428.969 151.801C428.819 151.701 432.168 145.996 436.454 139.055C440.739 132.102 444.337 126.547 444.487 126.647C444.637 126.747 441.289 132.452 437.003 139.393C432.718 146.333 429.119 151.889 428.969 151.801Z" fill="#263238"/>
<path d="M483.12 143.737C483.058 143.799 481.883 142.851 480.034 141.265C478.185 139.68 475.661 137.458 472.887 134.973C470.126 132.489 467.639 130.205 465.865 128.532C464.091 126.847 463.004 125.773 463.054 125.698C463.104 125.623 464.266 126.559 466.128 128.157C467.977 129.743 470.513 131.977 473.287 134.474C476.061 136.971 478.547 139.255 480.334 140.941C482.108 142.601 483.182 143.675 483.12 143.737Z" fill="#263238"/>
<path d="M407.151 51.6836L364.15 72.8354L378.422 101.8L421.423 80.6477L407.151 51.6836Z" fill="#E8505B"/>
<path d="M406.504 51.545C406.517 51.545 406.454 51.7448 406.33 52.1193C406.18 52.5312 405.992 53.068 405.742 53.7421C405.193 55.1902 404.443 57.2126 403.506 59.6968C401.557 64.7652 398.895 71.7061 395.922 79.446L395.847 79.6333L395.647 79.5958C395.185 79.4959 394.672 79.3961 394.173 79.2962C385.714 77.511 378.067 75.9006 372.457 74.7272C369.721 74.128 367.497 73.6411 365.885 73.2916C365.148 73.1168 364.561 72.9795 364.099 72.8796C363.699 72.7797 363.486 72.7173 363.486 72.7048C363.486 72.6923 363.711 72.7173 364.124 72.7922C364.586 72.8796 365.173 72.9795 365.923 73.1168C367.534 73.4289 369.771 73.8658 372.52 74.4026C378.13 75.5511 385.789 77.1116 394.26 78.8343C394.76 78.9342 395.272 79.0465 395.734 79.1464L395.472 79.2962C398.496 71.5813 401.219 64.6529 403.193 59.597C404.18 57.1377 404.98 55.1278 405.567 53.6922C405.842 53.0306 406.067 52.5063 406.23 52.0943C406.392 51.7198 406.479 51.5325 406.504 51.545Z" fill="#263238"/>
<path d="M377.767 101.654C377.592 101.629 378.405 96.0243 379.592 89.1458C380.778 82.2673 381.878 76.7121 382.053 76.737C382.228 76.762 381.416 82.3672 380.229 89.2457C379.054 96.1366 377.942 101.679 377.767 101.654Z" fill="#263238"/>
<path d="M399.845 68.1483C399.932 67.9985 404.693 70.6325 410.465 74.0406C416.238 77.4486 420.848 80.3448 420.761 80.4946C420.673 80.6444 415.913 78.0104 410.14 74.5899C404.368 71.1943 399.758 68.2981 399.845 68.1483Z" fill="#263238"/>
<path d="M606.753 35.7533H558.824V68.036H606.753V35.7533Z" fill="#455A64"/>
<path d="M606.752 35.7532C606.764 35.7657 606.627 35.9155 606.339 36.1901C606.027 36.4897 605.615 36.8892 605.102 37.3885C603.965 38.4496 602.404 39.9352 600.467 41.7453C596.481 45.4405 591.021 50.4839 584.924 56.114L584.774 56.2513L584.612 56.1265C584.237 55.8394 583.825 55.5148 583.425 55.2027C576.628 49.8722 570.468 45.0535 565.958 41.5206C563.771 39.7729 561.984 38.3498 560.697 37.3386C560.11 36.8642 559.648 36.4772 559.286 36.1776C558.961 35.903 558.798 35.7657 558.811 35.7532C558.823 35.7407 558.998 35.8655 559.348 36.1027C559.723 36.3774 560.21 36.7394 560.822 37.1888C562.134 38.1875 563.946 39.5607 566.17 41.2585C570.693 44.7664 576.878 49.5476 583.712 54.8282C584.124 55.1403 584.524 55.4649 584.899 55.752L584.599 55.7645C590.721 50.1718 596.219 45.1534 600.242 41.4957C602.216 39.723 603.828 38.2874 604.978 37.2387C605.515 36.7643 605.94 36.3898 606.277 36.1027C606.577 35.8655 606.739 35.7407 606.752 35.7532Z" fill="#263238"/>
<path d="M558.836 68.0369C558.686 67.937 561.897 63.2681 565.995 57.613C570.093 51.9579 573.542 47.4638 573.692 47.5762C573.842 47.6885 570.631 52.3449 566.532 58C562.422 63.6426 558.973 68.1368 558.836 68.0369Z" fill="#263238"/>
<path d="M593.445 47.7125C593.595 47.6126 596.694 52.0817 600.367 57.6869C604.04 63.3046 606.902 67.9235 606.752 68.0234C606.602 68.1233 603.503 63.6541 599.83 58.0364C596.156 52.4313 593.295 47.8123 593.445 47.7125Z" fill="#263238"/>
<path d="M318.546 167.47L308.16 207.864L368.144 223.26L378.53 182.866L318.546 167.47Z" fill="#E8505B"/>
<path d="M378.555 182.861C378.567 182.873 378.342 183.023 377.892 183.285C377.393 183.56 376.755 183.934 375.956 184.384C374.194 185.357 371.758 186.693 368.747 188.353C362.562 191.687 354.103 196.256 344.67 201.349L344.445 201.474L344.283 201.274C343.908 200.787 343.495 200.263 343.096 199.738C336.299 190.888 330.151 182.873 325.653 177.006C323.479 174.122 321.693 171.763 320.418 170.077C319.844 169.291 319.381 168.654 319.019 168.18C318.707 167.743 318.544 167.506 318.569 167.493C318.582 167.481 318.769 167.693 319.119 168.105C319.494 168.567 319.994 169.178 320.606 169.94C321.918 171.6 323.754 173.922 325.991 176.756C330.526 182.598 336.723 190.563 343.583 199.376C343.995 199.901 344.395 200.425 344.77 200.912L344.383 200.825C353.853 195.794 362.349 191.287 368.547 187.991C371.583 186.406 374.057 185.12 375.843 184.196C376.668 183.784 377.33 183.447 377.83 183.198C378.292 182.948 378.542 182.836 378.555 182.861Z" fill="#263238"/>
<path d="M308.186 207.854C308.074 207.717 313.621 202.935 320.568 197.193C327.528 191.438 333.25 186.881 333.362 187.031C333.475 187.168 327.94 191.95 320.98 197.705C314.021 203.447 308.299 207.991 308.186 207.854Z" fill="#263238"/>
<path d="M358.051 193.547C358.226 193.484 360.625 200.088 363.411 208.29C366.21 216.492 368.334 223.183 368.159 223.245C367.984 223.308 365.585 216.704 362.799 208.502C360 200.3 357.876 193.609 358.051 193.547Z" fill="#263238"/>
</g>
<defs>
<clipPath id="clip0_155_12">
<rect width="805" height="468" fill="white"/>
</clipPath>
</defs>
</svg>
