<svg width="100" height="100" viewBox="0 0 100 100" fill="none" xmlns="http://www.w3.org/2000/svg">
<g clip-path="url(#clip0_145_39)">
<path d="M20.9675 67.7424C18.6159 67.7424 16.3565 68.467 14.4302 69.8373L16.3014 72.4653C17.6772 71.4856 19.2901 70.9682 20.9675 70.9682C25.414 70.9682 29.0319 74.5861 29.0319 79.0326C29.0319 80.71 28.5145 82.3229 27.5348 83.6987L30.1628 85.5699C31.5331 83.6436 32.2577 81.3842 32.2577 79.0326C32.2577 72.8087 27.1914 67.7424 20.9675 67.7424Z" fill="black"/>
<path d="M20.9674 87.0968C16.5209 87.0968 12.903 83.4789 12.903 79.0325C12.903 77.355 13.4204 75.7421 14.4001 74.3663L11.7721 72.4951C10.4018 74.4214 9.67725 76.6809 9.67725 79.0325C9.67725 85.2564 14.7435 90.3226 20.9674 90.3226C23.319 90.3226 25.5784 89.5981 27.5047 88.2277L25.6335 85.5997C24.2577 86.5794 22.6448 87.0968 20.9674 87.0968Z" fill="black"/>
<path d="M95.1598 32.2593C93.0602 32.2593 91.2859 33.6122 90.618 35.485H77.1196C76.4518 33.6122 74.6775 32.2593 72.5779 32.2593C69.9105 32.2593 67.7393 34.4305 67.7393 37.0979C67.7393 38.3123 68.2055 39.4109 68.9473 40.2622L58.8858 58.1496C58.6188 58.1023 58.3455 58.0653 58.0636 58.0653C57.4509 58.0653 56.8681 58.1913 56.3263 58.4008L52.5634 54.0103C52.9737 53.3007 53.2249 52.4895 53.2249 51.6138C53.2249 48.9464 51.0537 46.7751 48.3863 46.7751C47.1428 46.7751 46.019 47.2603 45.1606 48.0328V38.6722C45.1606 35.0818 42.8507 31.9789 39.4139 30.9464L29.0318 27.8333V25.3675C31.9528 23.3223 33.8704 19.9485 33.8704 16.1305V11.7872C34.7769 10.9469 35.5447 9.93886 36.122 8.78512L37.7593 5.5129L33.8271 4.20165C32.1882 3.65667 30.6336 2.89512 29.198 1.94063C27.2961 0.671116 25.087 0.00170898 22.8063 0.00170898C16.4564 0.00170898 11.287 5.16638 11.2838 11.5163L11.2807 16.4045C11.2791 19.3468 12.4226 22.1126 14.5033 24.1933C15.0065 24.6965 15.5515 25.1431 16.1288 25.5353V27.8333L5.74666 30.948C2.30985 31.9789 0 35.0834 0 38.6737V54.8395H42.8799L34.654 63.0654L32.5789 60.9894L29.1224 63.2945C28.2269 62.8299 27.2929 62.4424 26.3305 62.1361L25.5139 58.0653H16.4194L15.6027 62.1361C14.6388 62.4408 13.7047 62.8299 12.8109 63.2945L9.35437 60.9894L2.92413 67.4197L5.22925 70.8762C4.7646 71.7716 4.37713 72.7056 4.07078 73.668L0 74.4862V83.5807L4.07078 84.3974C4.37556 85.3613 4.7646 86.2954 5.22925 87.1892L2.92413 90.6457L9.35437 97.076L12.8109 94.7708C13.7063 95.2355 14.6403 95.623 15.6027 95.9293L16.4209 100H25.5154L26.3321 95.9293C27.2961 95.6245 28.2301 95.2355 29.1239 94.7708L32.5804 97.076L39.0107 90.6457L36.7056 87.1892C37.1702 86.2938 37.5577 85.3598 37.864 84.3974L41.9348 83.5791V74.4847L37.864 73.668C37.5592 72.704 37.1702 71.77 36.7056 70.8762L39.0107 67.4197L36.9347 65.3461L46.3135 55.9673C46.9443 56.2705 47.6413 56.4524 48.3863 56.4524C48.999 56.4524 49.5818 56.3264 50.1236 56.1169L53.8865 60.5074C53.4762 61.217 53.2249 62.0282 53.2249 62.9039C53.2249 65.5713 55.3962 67.7425 58.0636 67.7425C60.731 67.7425 62.9022 65.5713 62.9022 62.9039C62.9022 61.6895 62.436 60.5909 61.6941 59.7396L71.7549 41.853C72.0243 41.8995 72.2975 41.9365 72.5795 41.9365C74.6791 41.9365 76.4534 40.5835 77.1212 38.7108H90.6196C91.2874 40.5835 93.0618 41.9365 95.1613 41.9365C97.8287 41.9365 100 39.7653 100 37.0979C100 34.4305 97.8271 32.2593 95.1598 32.2593ZM22.411 40.3236H22.748L24.0026 51.6138H21.1564L22.411 40.3236ZM23.03 37.0979H22.129L20.9832 33.6626C21.4769 33.7934 22.0062 33.8721 22.5803 33.8721C23.1544 33.8721 23.6836 33.7934 24.175 33.6626L23.03 37.0979ZM22.8063 3.22746C24.4499 3.22746 26.0399 3.70944 27.4095 4.62062C29.0798 5.73735 30.8959 6.62411 32.8057 7.25966L33.2089 7.39511C31.9819 9.80025 29.5476 11.2918 26.8464 11.2918C25.432 11.2918 24.0593 10.876 22.8819 10.0916L19.4727 7.81802L18.2945 8.40631C17.1833 8.9631 15.9807 9.34348 14.7529 9.53564C15.6436 5.91769 18.9174 3.22746 22.8063 3.22746ZM14.508 12.8189C16.1351 12.6448 17.7369 12.2093 19.2285 11.532L21.0918 12.7756C23.9096 14.6531 27.6268 14.9838 30.6447 13.8065V16.1305C30.6447 20.5769 27.0062 24.1949 22.5338 24.1949H22.2913C20.2106 24.1949 18.2559 23.3853 16.7856 21.9142C15.316 20.443 14.5064 18.4868 14.508 16.4077V12.8189ZM22.2897 27.4206H22.5322C23.6702 27.4206 24.7673 27.2481 25.8045 26.9371V28.5885C25.406 29.206 24.2948 30.6464 22.5803 30.6464C20.8658 30.6464 19.7546 29.206 19.3545 28.5885V27.0158C20.2996 27.2773 21.2832 27.4206 22.2897 27.4206ZM3.22575 38.6737C3.22575 36.519 4.61103 34.6573 6.67438 34.0383L16.7076 31.0283L19.3254 38.8832L17.911 51.6138H12.903V38.7108H9.67726V51.6138H3.22575V38.6737ZM41.9348 51.6138H35.4833V38.7108H32.2575V51.6138H27.2496L25.8352 38.8832L28.4529 31.0283L38.4862 34.0383C40.5495 34.6557 41.9348 36.519 41.9348 38.6737V51.6138ZM38.7091 77.1276V80.9362L35.2707 81.6229L35.0202 82.6081C34.6753 83.9603 34.1413 85.2487 33.4333 86.4371L32.9144 87.3097L34.8588 90.2307L32.167 92.9225L29.246 90.9781L28.3734 91.497C27.185 92.205 25.8966 92.7406 24.5444 93.0839L23.5592 93.3344L22.8725 96.7743H19.0639L18.3772 93.3359L17.392 93.0855C16.0398 92.7406 14.7514 92.2066 13.563 91.4986L12.6904 90.9796L9.76941 92.9241L7.0776 90.2323L9.02282 87.3113L8.50305 86.4387C7.79505 85.2503 7.25952 83.9619 6.91616 82.6097L6.66572 81.6245L3.22575 80.9377V77.1292L6.66414 76.4425L6.91458 75.4573C7.25952 74.1051 7.79347 72.8167 8.50147 71.6283L9.02046 70.7557L7.07603 67.8347L9.76783 65.1429L12.6888 67.0881L13.5614 66.5683C14.7498 65.8603 16.0382 65.3248 17.3904 64.9814L18.3756 64.731L19.0624 61.291H22.8709L23.5576 64.7294L24.5428 64.9799C25.895 65.3248 27.1834 65.8588 28.3718 66.5668L29.2444 67.0857L32.1654 65.1413L34.8572 67.8331L32.912 70.7541L33.4318 71.6267C34.1398 72.8151 34.6753 74.1035 35.0187 75.4557L35.2691 76.4409L38.7091 77.1276ZM46.7734 51.6138C46.7734 50.7239 47.4964 50.0009 48.3863 50.0009C49.2762 50.0009 49.9992 50.7239 49.9992 51.6138C49.9992 52.5045 49.2762 53.2267 48.3863 53.2267C47.4964 53.2267 46.7734 52.5045 46.7734 51.6138ZM58.0636 64.5168C57.1737 64.5168 56.4507 63.7946 56.4507 62.9039C56.4507 62.014 57.1737 61.291 58.0636 61.291C58.9535 61.291 59.6765 62.014 59.6765 62.9039C59.6765 63.7946 58.9535 64.5168 58.0636 64.5168ZM72.5795 38.7108C71.6896 38.7108 70.9666 37.9886 70.9666 37.0979C70.9666 36.208 71.6896 35.485 72.5795 35.485C73.4694 35.485 74.1924 36.208 74.1924 37.0979C74.1924 37.9886 73.4694 38.7108 72.5795 38.7108ZM95.1598 38.7108C94.2698 38.7108 93.5469 37.9886 93.5469 37.0979C93.5469 36.208 94.2698 35.485 95.1598 35.485C96.0497 35.485 96.7726 36.208 96.7726 37.0979C96.7726 37.9886 96.0497 38.7108 95.1598 38.7108Z" fill="black"/>
<path d="M93.5469 43.5493H83.8696V96.7743H80.6439V51.6137H70.9666V96.7743H67.7409V75.8069H58.0636V96.7743H54.8378V69.3554H45.1606V96.7743H41.9348V100H99.9984V96.7743H93.5469V43.5493ZM87.0954 46.7751H90.3211V96.7743H87.0954V46.7751ZM74.1924 54.8395H77.4181V96.7743H74.1924V54.8395ZM61.2893 79.0326H64.5151V96.7743H61.2893V79.0326ZM48.3863 72.5811H51.6121V96.7743H48.3863V72.5811Z" fill="black"/>
<path d="M35.4834 96.7742H38.7092V100H35.4834V96.7742Z" fill="black"/>
<path d="M25.8061 79.0326C25.8061 76.3651 23.6348 74.1938 20.9674 74.1938C18.2999 74.1938 16.1287 76.3651 16.1287 79.0326C16.1287 81.7 18.2999 83.8713 20.9674 83.8713C23.6348 83.8713 25.8061 81.7 25.8061 79.0326ZM19.3545 79.0326C19.3545 78.1426 20.0774 77.4197 20.9674 77.4197C21.8573 77.4197 22.5803 78.1426 22.5803 79.0326C22.5803 79.9233 21.8573 80.6455 20.9674 80.6455C20.0774 80.6455 19.3545 79.9233 19.3545 79.0326Z" fill="black"/>
<path d="M96.7726 0.00170898H70.9665C69.1875 0.00170898 67.7408 1.44842 67.7408 3.22746V6.45322H46.7734C44.9943 6.45322 43.5476 7.89992 43.5476 9.67897V25.8077C43.5476 27.5868 44.9943 29.0335 46.7734 29.0335H51.612V35.485L60.2135 29.0335H72.5794C74.3584 29.0335 75.8052 27.5868 75.8052 25.8077V22.582H80.6438V29.0335L89.2453 22.582H96.7726C98.5516 22.582 99.9983 21.1353 99.9983 19.3562V3.22746C99.9983 1.44842 98.5516 0.00170898 96.7726 0.00170898ZM72.5794 25.8077H59.1393L54.8377 29.0335V25.8077H46.7734L46.7702 9.67897H72.5794V25.8077ZM96.7726 19.3562H88.1711L83.8695 22.582V19.3562H75.8052V9.67897C75.8052 7.89992 74.3584 6.45322 72.5794 6.45322H70.9665V3.22746H96.7726V19.3562Z" fill="black"/>
<path d="M82.2568 9.67896H85.4826V12.9048H82.2568V9.67896Z" fill="black"/>
<path d="M88.7083 9.67896H91.9341V12.9048H88.7083V9.67896Z" fill="black"/>
<path d="M49.999 12.9045H69.3535V16.1303H49.999V12.9045Z" fill="black"/>
<path d="M49.999 19.3562H69.3535V22.582H49.999V19.3562Z" fill="black"/>
</g>
<defs>
<clipPath id="clip0_145_39">
<rect width="100" height="100" fill="white"/>
</clipPath>
</defs>
</svg>
