<svg width="101" height="100" viewBox="0 0 101 100" fill="none" xmlns="http://www.w3.org/2000/svg">
<path d="M92.3096 24.9999H90.2776C92.0931 22.9776 93.2833 20.4735 93.7044 17.7902C94.1255 15.1069 93.7595 12.3593 92.6507 9.87924C91.5418 7.3992 89.7375 5.29291 87.4559 3.81487C85.1742 2.33683 82.5127 1.55029 79.7931 1.55029C77.0734 1.55029 74.412 2.33683 72.1303 3.81487C69.8486 5.29291 68.0443 7.3992 66.9355 9.87924C65.8266 12.3593 65.4606 15.1069 65.8817 17.7902C66.3028 20.4735 67.493 22.9776 69.3085 24.9999H50.0662V9.37493C50.0662 8.96053 49.9014 8.5631 49.6079 8.27007C49.3145 7.97705 48.9166 7.81243 48.5016 7.81243H42.2433C41.8284 7.81243 41.4304 7.97705 41.137 8.27007C40.8436 8.5631 40.6788 8.96053 40.6788 9.37493V24.9999H39.1142V3.12493C39.1142 2.71053 38.9493 2.3131 38.6559 2.02007C38.3625 1.72705 37.9646 1.56243 37.5496 1.56243H31.2913C30.8764 1.56243 30.4784 1.72705 30.185 2.02007C29.8916 2.3131 29.7268 2.71053 29.7268 3.12493V24.9999H28.1622V14.0624C28.1622 13.648 27.9973 13.2506 27.7039 12.9576C27.4105 12.6645 27.0126 12.4999 26.5976 12.4999H20.3393C19.9244 12.4999 19.5264 12.6645 19.233 12.9576C18.9396 13.2506 18.7747 13.648 18.7747 14.0624V24.9999H7.82274C6.16351 25.0018 4.57277 25.6609 3.39952 26.8326C2.22627 28.0043 1.56632 29.5929 1.56445 31.2499V78.1249C1.56632 79.782 2.22627 81.3706 3.39952 82.5423C4.57277 83.714 6.16351 84.3731 7.82274 84.3749H40.0725L37.9857 90.6249H32.8559C32.4409 90.6249 32.043 90.7896 31.7496 91.0826C31.4562 91.3756 31.2913 91.773 31.2913 92.1874V95.3124H15.6456C15.2307 95.3124 14.8327 95.4771 14.5393 95.7701C14.2459 96.0631 14.081 96.4605 14.081 96.8749C14.081 97.2893 14.2459 97.6868 14.5393 97.9798C14.8327 98.2728 15.2307 98.4374 15.6456 98.4374H84.4868C84.9017 98.4374 85.2997 98.2728 85.5931 97.9798C85.8865 97.6868 86.0514 97.2893 86.0514 96.8749C86.0514 96.4605 85.8865 96.0631 85.5931 95.7701C85.2997 95.4771 84.9017 95.3124 84.4868 95.3124H68.8411V92.1874C68.8411 91.773 68.6762 91.3756 68.3828 91.0826C68.0894 90.7896 67.6914 90.6249 67.2765 90.6249H62.1466L60.0599 84.3749H92.3096C93.9689 84.3731 95.5596 83.714 96.7329 82.5423C97.9061 81.3706 98.5661 79.782 98.5679 78.1249V31.2499C98.5661 29.5929 97.9061 28.0043 96.7329 26.8326C95.5596 25.6609 93.9689 25.0018 92.3096 24.9999ZM81.3576 4.80071C83.6959 5.14147 85.8616 6.22695 87.5326 7.89567C89.2035 9.5644 90.2904 11.7272 90.6316 14.0624H81.3576V4.80071ZM80.4404 17.1874H90.6316C90.3614 19.065 89.6066 20.84 88.4413 22.3379C87.2761 23.8358 85.7406 25.0051 83.9857 25.7308C82.2309 26.4565 80.3171 26.7137 78.4326 26.477C76.5481 26.2403 74.7578 25.5179 73.2375 24.3808L80.4404 17.1874ZM68.8411 15.6249C68.8448 12.996 69.7952 10.4561 71.5186 8.46888C73.242 6.48167 75.6236 5.17972 78.2285 4.80071V14.9784L71.0256 22.1718C69.6054 20.284 68.8386 17.9861 68.8411 15.6249ZM43.8079 10.9374H46.937V40.6249H43.8079V10.9374ZM39.1142 28.1249H40.6788V40.6249H39.1142V28.1249ZM32.8559 4.68743H35.985V40.6249H32.8559V4.68743ZM28.1622 28.1249H29.7268V40.6249H28.1622V28.1249ZM21.9039 15.6249H25.033V40.6249H21.9039V15.6249ZM65.7119 93.7499V95.3124H34.4205V93.7499H65.7119ZM41.285 90.6249L43.3718 84.3749H56.7606L58.8474 90.6249H41.285ZM95.4388 78.1249C95.4377 78.9534 95.1077 79.7476 94.5211 80.3334C93.9345 80.9193 93.1392 81.2488 92.3096 81.2499H7.82274C6.99318 81.2488 6.1979 80.9193 5.6113 80.3334C5.02471 79.7476 4.69468 78.9534 4.6936 78.1249V74.9999H95.4388V78.1249ZM95.4388 71.8749H4.6936V31.2499C4.69468 30.4215 5.02471 29.6272 5.6113 29.0414C6.1979 28.4556 6.99318 28.126 7.82274 28.1249H18.7747V40.6249H17.2102V31.2499C17.2102 30.8355 17.0453 30.4381 16.7519 30.1451C16.4585 29.852 16.0606 29.6874 15.6456 29.6874H9.38731C8.97236 29.6874 8.57441 29.852 8.28099 30.1451C7.98758 30.4381 7.82274 30.8355 7.82274 31.2499V42.1874C7.82274 42.6018 7.98758 42.9993 8.28099 43.2923C8.57441 43.5853 8.97236 43.7499 9.38731 43.7499H59.4536C59.8686 43.7499 60.2665 43.5853 60.5599 43.2923C60.8534 42.9993 61.0182 42.6018 61.0182 42.1874V31.2499C61.0182 30.8355 60.8534 30.4381 60.5599 30.1451C60.2665 29.852 59.8686 29.6874 59.4536 29.6874H53.1953C52.7804 29.6874 52.3824 29.852 52.089 30.1451C51.7956 30.4381 51.6308 30.8355 51.6308 31.2499V40.6249H50.0662V28.1249H73.3548C75.3452 29.1516 77.5529 29.6874 79.7931 29.6874C82.0333 29.6874 84.2409 29.1516 86.2313 28.1249H92.3096C93.1392 28.126 93.9345 28.4556 94.5211 29.0414C95.1077 29.6272 95.4377 30.4215 95.4388 31.2499V71.8749ZM14.081 32.8124V40.6249H10.9519V32.8124H14.081ZM54.7599 40.6249V32.8124H57.8891V40.6249H54.7599Z" fill="black"/>
<path d="M18.7748 76.5625H9.38733C8.97238 76.5625 8.57442 76.7271 8.28101 77.0201C7.98759 77.3132 7.82275 77.7106 7.82275 78.125C7.82275 78.5394 7.98759 78.9368 8.28101 79.2299C8.57442 79.5229 8.97238 79.6875 9.38733 79.6875H18.7748C19.1897 79.6875 19.5877 79.5229 19.8811 79.2299C20.1745 78.9368 20.3393 78.5394 20.3393 78.125C20.3393 77.7106 20.1745 77.3132 19.8811 77.0201C19.5877 76.7271 19.1897 76.5625 18.7748 76.5625Z" fill="black"/>
<path d="M25.033 76.5625H23.4684C23.0534 76.5625 22.6555 76.7271 22.3621 77.0201C22.0686 77.3132 21.9038 77.7106 21.9038 78.125C21.9038 78.5394 22.0686 78.9368 22.3621 79.2299C22.6555 79.5229 23.0534 79.6875 23.4684 79.6875H25.033C25.4479 79.6875 25.8459 79.5229 26.1393 79.2299C26.4327 78.9368 26.5975 78.5394 26.5975 78.125C26.5975 77.7106 26.4327 77.3132 26.1393 77.0201C25.8459 76.7271 25.4479 76.5625 25.033 76.5625Z" fill="black"/>
<path d="M67.2763 40.625C67.4818 40.6253 67.6853 40.585 67.8752 40.5065C68.0651 40.4279 68.2375 40.3127 68.3826 40.1674L74.1825 34.375H87.6157C88.0307 34.375 88.4286 34.2104 88.722 33.9174C89.0155 33.6243 89.1803 33.2269 89.1803 32.8125C89.1803 32.3981 89.0155 32.0007 88.722 31.7076C88.4286 31.4146 88.0307 31.25 87.6157 31.25H73.5346C73.3291 31.25 73.1257 31.2904 72.9358 31.3689C72.746 31.4474 72.5735 31.5625 72.4282 31.7076L66.1699 37.9576C65.9511 38.1761 65.8021 38.4546 65.7417 38.7577C65.6814 39.0608 65.7123 39.3749 65.8308 39.6605C65.9492 39.946 66.1497 40.19 66.407 40.3617C66.6643 40.5334 66.9668 40.625 67.2763 40.625Z" fill="black"/>
<path d="M87.6158 57.8125C86.7936 57.8131 85.986 58.0294 85.2738 58.4396C84.5616 58.8499 83.9698 59.4399 83.5577 60.1504L67.1786 50.6074C66.9567 49.5426 66.3709 48.588 65.5217 47.9071C64.6724 47.2263 63.6125 46.8615 62.5235 46.8754C61.4346 46.8892 60.3843 47.2808 59.5527 47.9831C58.7211 48.6853 58.1599 49.6545 57.9652 50.7246L41.4824 63.0703C41.034 62.3807 40.4117 61.8211 39.6781 61.4479C38.9445 61.0746 38.1254 60.9008 37.3032 60.944C36.481 60.9871 35.6846 61.2457 34.9942 61.6937C34.3038 62.1417 33.7437 62.7633 33.3701 63.4961L17.079 56.7168C16.822 55.6464 16.1961 54.7005 15.311 54.0446C14.4259 53.3887 13.338 53.0646 12.2378 53.1291C11.1375 53.1935 10.095 53.6425 9.2928 54.3973C8.4906 55.1521 7.97982 56.1646 7.84989 57.2576C7.71996 58.3506 7.97916 59.4545 8.5821 60.3759C9.18505 61.2973 10.0933 61.9775 11.1479 62.2974C12.2024 62.6174 13.3361 62.5567 14.3504 62.1259C15.3646 61.6952 16.1949 60.9219 16.6957 59.9414L32.9868 66.7207C33.2383 67.7661 33.8421 68.6933 34.6969 69.3469C35.5516 70.0004 36.6054 70.3406 37.6816 70.3104C38.7577 70.2802 39.7907 69.8814 40.6073 69.1809C41.424 68.4803 41.9746 67.5207 42.1669 66.4629L58.6497 54.1172C59.0863 54.789 59.6882 55.3377 60.3978 55.7108C61.1074 56.084 61.901 56.2691 62.7027 56.2485C63.5044 56.228 64.2874 56.0024 64.9769 55.5933C65.6663 55.1842 66.2392 54.6054 66.6407 53.9121L83.0199 63.4551C83.2007 64.3226 83.624 65.1213 84.2408 65.7583C84.8576 66.3954 85.6425 66.8448 86.5047 67.0544C87.3668 67.2641 88.2708 67.2254 89.1118 66.9428C89.9528 66.6602 90.6964 66.1454 91.2563 65.4579C91.8162 64.7705 92.1696 63.9386 92.2754 63.0588C92.3811 62.179 92.235 61.2872 91.854 60.4869C91.4729 59.6867 90.8725 59.0106 90.1224 58.5373C89.3722 58.0639 88.5031 57.8126 87.6158 57.8125ZM14.0809 57.8203C14.0799 58.2354 13.9139 58.6331 13.6194 58.9261C13.325 59.2191 12.9261 59.3833 12.5105 59.3828C12.0948 59.3823 11.6964 59.217 11.4026 58.9233C11.1089 58.6296 10.9439 58.2315 10.9439 57.8164C10.9439 57.4013 11.1089 57.0032 11.4026 56.7095C11.6964 56.4158 12.0948 56.2505 12.5105 56.25C12.9261 56.2495 13.325 56.4137 13.6194 56.7067C13.9139 56.9997 14.0799 57.3974 14.0809 57.8125V57.8203ZM37.5495 67.1875C37.1347 67.1869 36.7371 67.0221 36.4438 66.7292C36.1505 66.4363 35.9855 66.0392 35.9849 65.625V65.6172C35.9865 65.3085 36.0795 65.0072 36.2524 64.7512C36.4252 64.4953 36.6701 64.2963 36.9561 64.1792C37.2422 64.0621 37.5565 64.0323 37.8595 64.0935C38.1625 64.1546 38.4405 64.3041 38.6585 64.5229C38.8766 64.7417 39.0248 65.0201 39.0845 65.323C39.1443 65.6259 39.1128 65.9397 38.9942 66.2247C38.8755 66.5098 38.675 66.7534 38.4179 66.9247C38.1608 67.096 37.8586 67.1875 37.5495 67.1875ZM62.5826 53.125C62.2732 53.125 61.9707 53.0334 61.7134 52.8617C61.4561 52.69 61.2556 52.4459 61.1372 52.1604C61.0187 51.8749 60.9878 51.5608 61.0481 51.2577C61.1085 50.9546 61.2575 50.6762 61.4763 50.4576C61.6951 50.2391 61.9739 50.0903 62.2774 50.03C62.5809 49.9697 62.8955 50.0007 63.1814 50.1189C63.4673 50.2372 63.7116 50.4375 63.8835 50.6944C64.0555 50.9514 64.1472 51.2535 64.1472 51.5625C64.1466 51.9767 63.9816 52.3738 63.6883 52.6667C63.395 52.9596 62.9974 53.1244 62.5826 53.125ZM87.6158 64.0625C87.3064 64.0625 87.0039 63.9709 86.7466 63.7992C86.4893 63.6275 86.2887 63.3834 86.1703 63.0979C86.0519 62.8124 86.0209 62.4983 86.0813 62.1952C86.1417 61.8921 86.2907 61.6137 86.5095 61.3951C86.7283 61.1766 87.0071 61.0278 87.3106 60.9675C87.6141 60.9072 87.9286 60.9382 88.2145 61.0564C88.5004 61.1747 88.7448 61.375 88.9167 61.6319C89.0886 61.8889 89.1804 62.191 89.1804 62.5C89.1798 62.9142 89.0148 63.3113 88.7215 63.6042C88.4282 63.8971 88.0306 64.0619 87.6158 64.0625Z" fill="black"/>
<path d="M75.0993 67.1875H64.1473C63.7324 67.1875 63.3344 67.3521 63.041 67.6451C62.7476 67.9382 62.5828 68.3356 62.5828 68.75C62.5828 69.1644 62.7476 69.5618 63.041 69.8549C63.3344 70.1479 63.7324 70.3125 64.1473 70.3125H75.0993C75.5143 70.3125 75.9123 70.1479 76.2057 69.8549C76.4991 69.5618 76.6639 69.1644 76.6639 68.75C76.6639 68.3356 76.4991 67.9382 76.2057 67.6451C75.9123 67.3521 75.5143 67.1875 75.0993 67.1875Z" fill="black"/>
<path d="M75.0994 62.5H70.4056C69.9907 62.5 69.5927 62.6646 69.2993 62.9576C69.0059 63.2507 68.8411 63.6481 68.8411 64.0625C68.8411 64.4769 69.0059 64.8743 69.2993 65.1674C69.5927 65.4604 69.9907 65.625 70.4056 65.625H75.0994C75.5143 65.625 75.9123 65.4604 76.2057 65.1674C76.4991 64.8743 76.6639 64.4769 76.6639 64.0625C76.6639 63.6481 76.4991 63.2507 76.2057 62.9576C75.9123 62.6646 75.5143 62.5 75.0994 62.5Z" fill="black"/>
<path d="M9.38733 48.4375H26.5976C27.0126 48.4375 27.4105 48.2729 27.7039 47.9799C27.9974 47.6868 28.1622 47.2894 28.1622 46.875C28.1622 46.4606 27.9974 46.0632 27.7039 45.7701C27.4105 45.4771 27.0126 45.3125 26.5976 45.3125H9.38733C8.97238 45.3125 8.57442 45.4771 8.28101 45.7701C7.98759 46.0632 7.82275 46.4606 7.82275 46.875C7.82275 47.2894 7.98759 47.6868 8.28101 47.9799C8.57442 48.2729 8.97238 48.4375 9.38733 48.4375Z" fill="black"/>
<path d="M31.2914 48.4375H32.856C33.2709 48.4375 33.6689 48.2729 33.9623 47.9799C34.2557 47.6868 34.4205 47.2894 34.4205 46.875C34.4205 46.4606 34.2557 46.0632 33.9623 45.7701C33.6689 45.4771 33.2709 45.3125 32.856 45.3125H31.2914C30.8764 45.3125 30.4785 45.4771 30.1851 45.7701C29.8916 46.0632 29.7268 46.4606 29.7268 46.875C29.7268 47.2894 29.8916 47.6868 30.1851 47.9799C30.4785 48.2729 30.8764 48.4375 31.2914 48.4375Z" fill="black"/>
</svg>
