<svg width="112" height="112" viewBox="0 0 112 112" fill="none" xmlns="http://www.w3.org/2000/svg">
<g clip-path="url(#clip0_145_67)">
<path d="M90.5336 18.6663C88.9869 18.6663 87.7334 19.9198 87.7334 21.4664C87.7334 23.0131 88.9869 24.2666 90.5336 24.2666C92.0802 24.2666 93.3337 23.0131 93.3337 21.4664C93.3337 19.9198 92.0802 18.6663 90.5336 18.6663Z" fill="black"/>
<path d="M98.387 0.546906C97.6581 -0.181976 96.4763 -0.181976 95.7474 0.546906L80.8135 15.48C80.464 15.8304 80.2666 16.3046 80.2666 16.8002V29.8662C80.2666 30.8976 81.1023 31.7333 82.1337 31.7333H95.2006C95.6953 31.7333 96.1696 31.5368 96.5199 31.1864L111.453 16.2525C112.182 15.5236 112.182 14.3427 111.453 13.6129L98.387 0.546906ZM94.4272 28H83.9999V17.5727L97.0668 4.50577L107.494 14.9331L94.4272 28Z" fill="black"/>
<path d="M1.86707 63.4667H7.46655V63.7059C7.47424 67.0641 9.79419 69.9753 13.0669 70.7316V87.7334C13.0669 88.7648 13.9026 89.6005 14.9331 89.6005H26.1329C27.1643 89.6005 28 88.7648 28 87.7334V80.2668H29.8816C32.9629 80.2583 35.4589 77.7632 35.4666 74.6819V70.7316C37.8506 70.1727 39.7894 68.4432 40.6149 66.1378L72.0422 80.1062C72.9847 80.5249 74.0879 80.1002 74.5057 79.1577C74.6117 78.9193 74.6672 78.6612 74.6664 78.3998V33.5996C74.6672 32.5691 73.8315 31.7334 72.8002 31.7334C72.5396 31.7334 72.2806 31.7881 72.0422 31.894L40.6149 45.8624C39.5946 42.9939 36.8833 41.0756 33.8387 41.067H14.6947C10.7042 41.0704 7.47083 44.3047 7.46655 48.2943V48.5336H1.86707C0.835693 48.5336 0 49.3693 0 50.3998V61.5996C0 62.631 0.835693 63.4667 1.86707 63.4667ZM63.4666 39.7895L70.9331 36.4733V75.527L63.4666 72.2107V39.7895ZM41.0669 49.7469L59.7333 41.449V70.5598L41.0669 62.2533V49.7469ZM24.2667 78.3998V85.8672H16.8002V70.9332H24.2667V78.3998ZM31.7333 74.6819C31.7324 75.7038 30.9044 76.5327 29.8816 76.5336H28V70.9332H31.7333V74.6819ZM11.1998 61.5996V48.2943C11.2024 46.3657 12.7653 44.802 14.6947 44.8003H33.8387C35.7682 44.802 37.3311 46.3657 37.3336 48.2943V63.7059C37.3311 65.6345 35.7682 67.1982 33.8387 67.1999H14.6947C12.7653 67.1982 11.2024 65.6345 11.1998 63.7059V61.5996ZM3.73328 52.2668H7.46655V59.7334H3.73328V52.2668Z" fill="black"/>
<path d="M92.9756 73.4009C92.2467 72.672 91.065 72.672 90.3361 73.4009L77.135 86.602C76.4062 87.3308 76.4062 88.5126 77.135 89.2415L95.6151 107.722C96.344 108.45 97.5249 108.45 98.2547 107.722L111.453 94.5222C112.182 93.7934 112.182 92.6116 111.453 91.8827L92.9756 73.4009ZM105.247 90.9479L94.7128 90.1396L93.9027 79.6054L105.247 90.9479ZM96.9345 103.757L81.0939 87.9196L90.1045 78.9098L91.1145 92.0211C91.1846 92.9389 91.9135 93.6695 92.8312 93.7404L105.945 94.7478L96.9345 103.757Z" fill="black"/>
<path d="M50.4005 35.4666C57.6022 35.4828 63.4538 29.6577 63.4709 22.4561C63.4768 19.6191 62.5583 16.8574 60.8535 14.5896L72.2567 3.1864L69.6138 0.546875L58.2106 11.9467C52.4368 7.61694 44.2465 8.78674 39.9168 14.5597C35.5871 20.3326 36.7569 28.5229 42.5298 32.8535C44.8002 34.5557 47.5628 35.4725 50.4005 35.4666ZM50.4005 13.066C55.5548 13.066 59.7333 17.2454 59.7333 22.3997C59.7333 27.5548 55.5548 31.7333 50.4005 31.7333C45.2454 31.7333 41.0669 27.5548 41.0669 22.3997C41.0729 17.2479 45.248 13.0729 50.4005 13.066Z" fill="black"/>
<path d="M80.2668 65.3335H89.6005V67.1997C89.6005 68.2311 90.4362 69.0668 91.4675 69.0668H106.401C107.431 69.0668 108.267 68.2311 108.267 67.1997V57.902C108.257 54.7318 106.253 51.9112 103.263 50.8593C106.623 48.4684 107.408 43.8063 105.017 40.4464C102.627 37.0866 97.9651 36.3004 94.6052 38.6913C91.2454 41.0822 90.4592 45.7443 92.8501 49.1041C93.3329 49.7826 93.9259 50.3765 94.6052 50.8593C93.397 51.2899 92.3195 52.0239 91.4761 52.9904C90.8258 52.241 90.032 51.6283 89.1416 51.1891C91.6504 49.381 92.2186 45.881 90.4105 43.3722C88.6024 40.8634 85.1024 40.2952 82.5928 42.1033C80.084 43.9114 79.5157 47.4114 81.3239 49.9202C81.6759 50.409 82.1049 50.8371 82.5928 51.1891C80.0361 52.4324 78.4092 55.0232 78.4006 57.8661V63.4664C78.4006 64.497 79.2363 65.3335 80.2668 65.3335ZM98.9341 41.0668C100.996 41.0668 102.667 42.7382 102.667 44.8001C102.667 46.862 100.996 48.5333 98.9341 48.5333C96.8722 48.5333 95.2008 46.8611 95.2008 44.8001C95.2008 42.7382 96.8722 41.0668 98.9341 41.0668ZM93.3337 63.4664V57.902C93.3372 55.8213 95.0222 54.1362 97.1029 54.1328H100.765C102.845 54.1362 104.531 55.8213 104.534 57.902V65.3327H93.3337V63.4664ZM85.8672 44.8001C86.8977 44.8001 87.7334 45.6358 87.7334 46.6663C87.7334 47.6977 86.8977 48.5333 85.8672 48.5333C84.8358 48.5333 84.0001 47.6977 84.0001 46.6663C84.0001 45.6358 84.8358 44.8001 85.8672 44.8001ZM82.1339 57.8661C82.1339 55.8042 83.8053 54.1328 85.8672 54.1328C87.9291 54.1328 89.6005 55.8051 89.6005 57.8661V61.6002H82.1339V57.8661Z" fill="black"/>
<path d="M52.2666 76.5334H44.8001C44.3053 76.5334 43.8302 76.73 43.4799 77.0803L32.2801 88.2802C31.5512 89.009 31.5512 90.1908 32.2801 90.9197L52.8135 111.453C53.5424 112.182 54.7242 112.182 55.453 111.453L70.387 96.52C71.115 95.7911 71.115 94.6094 70.387 93.8805L53.5868 77.0803C53.2365 76.73 52.7614 76.5334 52.2666 76.5334ZM54.1337 107.494L36.2398 89.6003L45.5725 80.2667H51.4942L66.4273 95.1998L54.1337 107.494Z" fill="black"/>
<path d="M43.4807 92.0134L50.9473 84.5469L53.5868 87.1864L46.1202 94.6529L43.4807 92.0134Z" fill="black"/>
<path d="M49.0793 97.613L56.5468 90.1465L59.1863 92.786L51.7197 100.253L49.0793 97.613Z" fill="black"/>
</g>
<defs>
<clipPath id="clip0_145_67">
<rect width="112" height="112" fill="white"/>
</clipPath>
</defs>
</svg>
